Adsworth-8PT G1 XT0.ufo
<glyph name="exclam" format="2">
  <advance width="558"/>
  <unicode hex="0021"/>
  <outline>
    <contour>
      <point x="-16" y="464" type="line"/>
      <point x="-26" y="1500" type="line"/>
      <point x="570" y="1500" type="line"/>
      <point x="560" y="464" type="line"/>
    </contour>
    <contour>
      <point x="276.0" y="-52" type="line" smooth="yes"/>
      <point x="427.0" y="-52.0"/>
      <point x="602" y="114"/>
      <point x="602" y="236" type="qcurve" smooth="yes"/>
      <point x="602" y="254" type="line" smooth="yes"/>
      <point x="602" y="376"/>
      <point x="430.0" y="545.0"/>
      <point x="276.0" y="545" type="qcurve" smooth="yes"/>
      <point x="271" y="545" type="line" smooth="yes"/>
      <point x="127.0" y="545"/>
      <point x="-40" y="376"/>
      <point x="-40" y="254" type="qcurve" smooth="yes"/>
      <point x="-40" y="236" type="line" smooth="yes"/>
      <point x="-40" y="111"/>
      <point x="124.0" y="-52"/>
      <point x="271" y="-52" type="qcurve" smooth="yes"/>
    </contour>
  </outline>
</glyph>
<glyph name="quotedbl" format="2">
  <advance width="874"/>
  <unicode hex="0022"/>
  <outline>
    <contour>
      <point x="-76" y="762" type="line"/>
      <point x="-76" y="1500" type="line"/>
      <point x="497" y="1500" type="line"/>
      <point x="497" y="762" type="line"/>
    </contour>
    <contour>
      <point x="377" y="762" type="line"/>
      <point x="377" y="1500" type="line"/>
      <point x="950" y="1500" type="line"/>
      <point x="950" y="762" type="line"/>
    </contour>
  </outline>
</glyph>
<glyph name="numbersign" format="2">
  <advance width="1004"/>
  <unicode hex="0023"/>
  <outline>
    <contour>
      <point x="-12" y="0" type="line"/>
      <point x="158" y="1500" type="line"/>
      <point x="608" y="1500" type="line"/>
      <point x="438" y="0" type="line"/>
    </contour>
    <contour>
      <point x="922" y="210" type="line"/>
      <point x="2" y="210" type="line"/>
      <point x="2" y="710" type="line"/>
      <point x="922" y="710" type="line"/>
    </contour>
    <contour>
      <point x="992" y="805" type="line"/>
      <point x="52" y="805" type="line"/>
      <point x="62" y="1305" type="line"/>
      <point x="1002" y="1305" type="line"/>
    </contour>
    <contour>
      <point x="458" y="0" type="line"/>
      <point x="628" y="1500" type="line"/>
      <point x="1078" y="1500" type="line"/>
      <point x="908" y="0" type="line"/>
    </contour>
  </outline>
</glyph>
<glyph name="dollar" format="2">
  <advance width="796"/>
  <unicode hex="0024"/>
  <outline>
    <contour>
      <point x="210" y="358" type="line" smooth="yes"/>
      <point x="210.0" y="374.0"/>
      <point x="244" y="369"/>
      <point x="190" y="478" type="qcurve" smooth="yes"/>
      <point x="93" y="626"/>
      <point x="-25" y="905"/>
      <point x="-25" y="1095.0" type="qcurve" smooth="yes"/>
      <point x="-25" y="1120.0" type="line" smooth="yes"/>
      <point x="-25" y="1310.0"/>
      <point x="242" y="1512"/>
      <point x="378" y="1512.0" type="qcurve" smooth="yes"/>
      <point x="392" y="1512.0" type="line" smooth="yes"/>
      <point x="514" y="1512"/>
      <point x="749.0" y="1371.0"/>
      <point x="744" y="1236.0" type="qcurve" smooth="yes"/>
      <point x="744" y="1056.0" type="line"/>
      <point x="183" y="1056.0" type="line"/>
      <point x="183.0" y="1280" type="line" smooth="yes"/>
      <point x="183.0" y="1200.0"/>
      <point x="272" y="1098"/>
      <point x="387.0" y="1098" type="qcurve" smooth="yes"/>
      <point x="364.0" y="1098" type="line" smooth="yes"/>
      <point x="465" y="1098"/>
      <point x="549.0" y="1116"/>
      <point x="549.0" y="1162" type="qcurve" smooth="yes"/>
      <point x="549.0" y="1037" type="line" smooth="yes"/>
      <point x="549" y="1065"/>
      <point x="526" y="1087"/>
      <point x="538" y="1017" type="qcurve" smooth="yes"/>
      <point x="569.0" y="930"/>
      <point x="779.0" y="658.0"/>
      <point x="779" y="438.0" type="qcurve" smooth="yes"/>
      <point x="779" y="395.0" type="line" smooth="yes"/>
      <point x="779.0" y="219.0"/>
      <point x="539" y="-22"/>
      <point x="386" y="-22.0" type="qcurve" smooth="yes"/>
      <point x="372" y="-22.0" type="line" smooth="yes"/>
      <point x="230" y="-22"/>
      <point x="5" y="174.0"/>
      <point x="3" y="331.0" type="qcurve" smooth="yes"/>
      <point x="3" y="496.0" type="line"/>
      <point x="533.0" y="494.0" type="line"/>
      <point x="533.0" y="288" type="line" smooth="yes"/>
      <point x="533.0" y="314.0"/>
      <point x="470" y="344"/>
      <point x="369" y="344" type="qcurve" smooth="yes"/>
      <point x="382" y="344" type="line" smooth="yes"/>
      <point x="296" y="344"/>
      <point x="210.0" y="327.0"/>
      <point x="210" y="307" type="qcurve" smooth="yes"/>
    </contour>
    <contour>
      <point x="213" y="-100" type="line"/>
      <point x="213" y="201" type="line"/>
      <point x="533" y="201" type="line"/>
      <point x="533" y="-100" type="line"/>
    </contour>
    <contour>
      <point x="214" y="1280" type="line"/>
      <point x="214" y="1593" type="line"/>
      <point x="534" y="1593" type="line"/>
      <point x="534" y="1280" type="line"/>
    </contour>
  </outline>
</glyph>
<glyph name="percent" format="2">
  <advance width="1734"/>
  <unicode hex="0025"/>
  <outline>
    <contour>
      <point x="376.0" y="569" type="line" smooth="yes"/>
      <point x="213.0" y="569"/>
      <point x="-33.0" y="794"/>
      <point x="-33.0" y="973" type="qcurve" smooth="yes"/>
      <point x="-33.0" y="1181" type="line" smooth="yes"/>
      <point x="-33.0" y="1339"/>
      <point x="210.0" y="1546.0"/>
      <point x="373.0" y="1546.0" type="qcurve" smooth="yes"/>
      <point x="378.0" y="1546.0" type="line" smooth="yes"/>
      <point x="544.0" y="1546.0"/>
      <point x="787.0" y="1339"/>
      <point x="787.0" y="1181" type="qcurve" smooth="yes"/>
      <point x="787.0" y="973" type="line" smooth="yes"/>
      <point x="787.0" y="794"/>
      <point x="548.0" y="569"/>
      <point x="381.0" y="569" type="qcurve" smooth="yes"/>
    </contour>
    <contour>
      <point x="381" y="1004" type="line" smooth="yes"/>
      <point x="351" y="1004"/>
      <point x="317" y="985"/>
      <point x="317" y="967" type="qcurve" smooth="yes"/>
      <point x="317.0" y="1177" type="line" smooth="yes"/>
      <point x="317.0" y="1143"/>
      <point x="351.0" y="1100"/>
      <point x="381.0" y="1100" type="qcurve" smooth="yes"/>
      <point x="381.0" y="1100" type="line" smooth="yes"/>
      <point x="410.0" y="1100"/>
      <point x="444.0" y="1143"/>
      <point x="444.0" y="1177" type="qcurve" smooth="yes"/>
      <point x="444" y="967" type="line" smooth="yes"/>
      <point x="444" y="985"/>
      <point x="412" y="1004"/>
      <point x="381" y="1004" type="qcurve" smooth="yes"/>
    </contour>
    <contour>
      <point x="1346.0" y="-35.0" type="line" smooth="yes"/>
      <point x="1183.0" y="-35.0"/>
      <point x="947.0" y="190"/>
      <point x="947.0" y="369" type="qcurve" smooth="yes"/>
      <point x="947.0" y="577" type="line" smooth="yes"/>
      <point x="947.0" y="735"/>
      <point x="1180.0" y="942.0"/>
      <point x="1343.0" y="942.0" type="qcurve" smooth="yes"/>
      <point x="1348.0" y="942.0" type="line" smooth="yes"/>
      <point x="1514.0" y="942.0"/>
      <point x="1767.0" y="735"/>
      <point x="1767.0" y="577" type="qcurve" smooth="yes"/>
      <point x="1767.0" y="369" type="line" smooth="yes"/>
      <point x="1767.0" y="190"/>
      <point x="1518.0" y="-35.0"/>
      <point x="1351.0" y="-35.0" type="qcurve" smooth="yes"/>
    </contour>
    <contour>
      <point x="1351" y="386" type="line" smooth="yes"/>
      <point x="1321" y="386"/>
      <point x="1287" y="367"/>
      <point x="1287" y="349" type="qcurve" smooth="yes"/>
      <point x="1287.0" y="559" type="line" smooth="yes"/>
      <point x="1287.0" y="525"/>
      <point x="1321.0" y="482.0"/>
      <point x="1351.0" y="482.0" type="qcurve" smooth="yes"/>
      <point x="1351.0" y="482.0" type="line" smooth="yes"/>
      <point x="1380.0" y="482.0"/>
      <point x="1414.0" y="525"/>
      <point x="1414.0" y="559" type="qcurve" smooth="yes"/>
      <point x="1414" y="349" type="line" smooth="yes"/>
      <point x="1414" y="367"/>
      <point x="1382" y="386"/>
      <point x="1351" y="386" type="qcurve" smooth="yes"/>
    </contour>
    <contour>
      <point x="282" y="0" type="line"/>
      <point x="1052" y="1500" type="line"/>
      <point x="1432" y="1500" type="line"/>
      <point x="672" y="0" type="line"/>
    </contour>
  </outline>
</glyph>
<glyph name="ampersand" format="2">
  <advance width="1159"/>
  <unicode hex="0026"/>
  <outline>
    <contour>
      <point x="482" y="656" type="line"/>
      <point x="1144" y="916" type="line"/>
      <point x="1265" y="621" type="line"/>
      <point x="588" y="397" type="line"/>
    </contour>
    <contour>
      <point x="670" y="617" type="line"/>
      <point x="653" y="617.0" type="line" smooth="yes"/>
      <point x="647" y="617"/>
      <point x="619.0" y="598.0"/>
      <point x="619.0" y="525.0" type="qcurve" smooth="yes"/>
      <point x="619.0" y="462" type="line" smooth="yes"/>
      <point x="619.0" y="360.0"/>
      <point x="601.0" y="345.0"/>
      <point x="580.0" y="345.0" type="qcurve" smooth="yes"/>
      <point x="637.0" y="345" type="line" smooth="yes"/>
      <point x="626.0" y="345.0"/>
      <point x="611.0" y="387.0"/>
      <point x="611.0" y="427" type="qcurve" smooth="yes"/>
      <point x="611.0" y="445.0" type="line" smooth="yes"/>
      <point x="611" y="463"/>
      <point x="610" y="515.0"/>
      <point x="611" y="532.0" type="qcurve"/>
      <point x="1037" y="621.0" type="line"/>
      <point x="1059" y="594.0"/>
      <point x="1107" y="448.0"/>
      <point x="1107" y="402.0" type="qcurve" smooth="yes"/>
      <point x="1107" y="389.0" type="line" smooth="yes"/>
      <point x="1107.0" y="238.0"/>
      <point x="866.0" y="-36.0"/>
      <point x="644" y="-36.0" type="qcurve" smooth="yes"/>
      <point x="613" y="-36.0" type="line" smooth="yes"/>
      <point x="325.0" y="-36"/>
      <point x="50" y="194"/>
      <point x="50.0" y="403.0" type="qcurve" smooth="yes"/>
      <point x="50.0" y="472.0" type="line" smooth="yes"/>
      <point x="50" y="620"/>
      <point x="208" y="789.0"/>
      <point x="322" y="810.0" type="qcurve"/>
      <point x="234" y="837.0"/>
      <point x="132.0" y="968.0"/>
      <point x="132.0" y="1049.0" type="qcurve" smooth="yes"/>
      <point x="132.0" y="1218.0" type="line" smooth="yes"/>
      <point x="132.0" y="1350.0"/>
      <point x="337" y="1523.0"/>
      <point x="481" y="1523.0" type="qcurve" smooth="yes"/>
      <point x="527" y="1523.0" type="line" smooth="yes"/>
      <point x="667" y="1523.0"/>
      <point x="867" y="1390.0"/>
      <point x="866" y="1271.0" type="qcurve" smooth="yes"/>
      <point x="866" y="1090.0" type="line"/>
      <point x="463" y="1090.0" type="line"/>
      <point x="463.0" y="1211" type="line" smooth="yes"/>
      <point x="463.0" y="1165"/>
      <point x="521.0" y="1111"/>
      <point x="564.0" y="1111" type="qcurve" smooth="yes"/>
      <point x="543.0" y="1111" type="line" smooth="yes"/>
      <point x="577.0" y="1111"/>
      <point x="622" y="1140.0"/>
      <point x="622.0" y="1141.0" type="qcurve" smooth="yes"/>
      <point x="622" y="998.0" type="line" smooth="yes"/>
      <point x="622.0" y="986.0"/>
      <point x="630" y="991"/>
      <point x="647" y="982.0" type="qcurve" smooth="yes"/>
      <point x="646.0" y="981" type="line"/>
    </contour>
  </outline>
</glyph>
<glyph name="quotesingle" format="2">
  <advance width="500"/>
  <unicode hex="0027"/>
  <outline>
    <contour>
      <point x="-26" y="742" type="line"/>
      <point x="-26" y="1500" type="line"/>
      <point x="526" y="1500" type="line"/>
      <point x="526" y="742" type="line"/>
    </contour>
  </outline>
</glyph>
<glyph name="parenleft" format="2">
  <advance width="506"/>
  <unicode hex="0028"/>
  <outline>
    <contour>
      <point x="160.0" y="-383.0" type="line"/>
      <point x="-88" y="95.0"/>
      <point x="-87" y="1133.0"/>
      <point x="144" y="1607.0" type="qcurve"/>
      <point x="528" y="1330.0" type="line"/>
      <point x="487" y="964.0"/>
      <point x="504" y="220.0"/>
      <point x="546" y="-130.0" type="qcurve"/>
    </contour>
  </outline>
</glyph>
<glyph name="parenright" format="2">
  <advance width="506"/>
  <unicode hex="0029"/>
  <outline>
    <contour>
      <point x="346.0" y="-383.0" type="qcurve"/>
      <point x="-40.0" y="-130.0" type="line"/>
      <point x="2.0" y="220.0"/>
      <point x="19.0" y="964.0"/>
      <point x="-22.0" y="1330.0" type="qcurve"/>
      <point x="362.0" y="1607.0" type="line"/>
      <point x="593.0" y="1133.0"/>
      <point x="594.0" y="95.0"/>
    </contour>
  </outline>
</glyph>
<glyph name="asterisk" format="2">
  <advance width="785"/>
  <unicode hex="002A"/>
  <outline>
    <contour>
      <point x="424.0" y="815" type="line"/>
      <point x="397" y="660" type="line"/>
      <point x="-31" y="952" type="line"/>
      <point x="69" y="1057" type="line"/>
      <point x="-1" y="1040" type="line"/>
      <point x="193" y="1538" type="line"/>
      <point x="200" y="1445" type="line"/>
      <point x="168" y="1542.0" type="line"/>
      <point x="680" y="1542.0" type="line"/>
      <point x="645" y="1445" type="line"/>
      <point x="656" y="1535" type="line"/>
      <point x="850" y="1041" type="line"/>
      <point x="779" y="1057" type="line"/>
      <point x="882" y="962" type="line"/>
      <point x="450" y="660" type="line"/>
    </contour>
  </outline>
</glyph>
<glyph name="plus" format="2">
  <advance width="750"/>
  <unicode hex="002B"/>
  <outline>
    <contour>
      <point x="844" y="490" type="line"/>
      <point x="-84" y="500" type="line"/>
      <point x="-84" y="1025" type="line"/>
      <point x="844" y="1015" type="line"/>
    </contour>
    <contour>
      <point x="648.0" y="1282.0" type="line"/>
      <point x="648.0" y="242.0" type="line"/>
      <point x="103.0" y="242.0" type="line"/>
      <point x="103.0" y="1282.0" type="line"/>
    </contour>
  </outline>
</glyph>
<glyph name="comma" format="2">
  <advance width="590"/>
  <unicode hex="002C"/>
  <outline>
    <contour>
      <point x="-6.0" y="-181" type="line"/>
      <point x="43" y="263" type="line" smooth="yes"/>
      <point x="53" y="350"/>
      <point x="190.0" y="507.0"/>
      <point x="299" y="507" type="qcurve" smooth="yes"/>
      <point x="314" y="507.0" type="line" smooth="yes"/>
      <point x="416.0" y="507.0"/>
      <point x="545.0" y="394.0"/>
      <point x="545" y="308.0" type="qcurve" smooth="yes"/>
      <point x="545" y="293" type="line" smooth="yes"/>
      <point x="545" y="220"/>
      <point x="299" y="-141"/>
      <point x="208" y="-264.0" type="qcurve"/>
    </contour>
  </outline>
</glyph>
<glyph name="hyphen" format="2">
  <advance width="700"/>
  <unicode hex="002D"/>
  <outline>
    <contour>
      <point x="679" y="503" type="line"/>
      <point x="19" y="503" type="line"/>
      <point x="19" y="1005" type="line"/>
      <point x="679" y="1005" type="line"/>
    </contour>
  </outline>
</glyph>
<glyph name="period" format="2">
  <advance width="590"/>
  <unicode hex="002E"/>
  <outline>
    <contour>
      <point x="291" y="-40" type="line" smooth="yes"/>
      <point x="428" y="-40"/>
      <point x="601" y="123"/>
      <point x="601" y="244" type="qcurve" smooth="yes"/>
      <point x="601" y="261" type="line" smooth="yes"/>
      <point x="601" y="379"/>
      <point x="432" y="545"/>
      <point x="291" y="545" type="qcurve" smooth="yes"/>
      <point x="286" y="545" type="line" smooth="yes"/>
      <point x="155" y="545"/>
      <point x="-9" y="379"/>
      <point x="-9" y="261" type="qcurve" smooth="yes"/>
      <point x="-9" y="244" type="line" smooth="yes"/>
      <point x="-9" y="121"/>
      <point x="154" y="-40"/>
      <point x="286" y="-40" type="qcurve" smooth="yes"/>
    </contour>
  </outline>
</glyph>
<glyph name="slash" format="2">
  <advance width="524"/>
  <unicode hex="002F"/>
  <outline>
    <contour>
      <point x="-68" y="0" type="line"/>
      <point x="72" y="1500" type="line"/>
      <point x="592" y="1500" type="line"/>
      <point x="452" y="0" type="line"/>
    </contour>
  </outline>
</glyph>
<glyph name="zero" format="2">
  <advance width="785"/>
  <unicode hex="0030"/>
  <outline>
    <contour>
      <point x="373" y="-14.0" type="line" smooth="yes"/>
      <point x="236.0" y="-14"/>
      <point x="57" y="167"/>
      <point x="57" y="339.0" type="qcurve" smooth="yes"/>
      <point x="57" y="1153.0" type="line" smooth="yes"/>
      <point x="57" y="1335"/>
      <point x="234.0" y="1516.0"/>
      <point x="371" y="1516.0" type="qcurve" smooth="yes"/>
      <point x="413" y="1516.0" type="line" smooth="yes"/>
      <point x="544.0" y="1516.0"/>
      <point x="728" y="1335"/>
      <point x="728" y="1153.0" type="qcurve" smooth="yes"/>
      <point x="728" y="339.0" type="line" smooth="yes"/>
      <point x="728" y="157"/>
      <point x="546.0" y="-14.0"/>
      <point x="415" y="-14.0" type="qcurve" smooth="yes"/>
    </contour>
    <contour>
      <point x="398.0" y="341" type="line" smooth="yes"/>
      <point x="286.0" y="341.0"/>
      <point x="102.0" y="145.0"/>
      <point x="102.0" y="156" type="qcurve" smooth="yes"/>
      <point x="102.0" y="1329" type="line" smooth="yes"/>
      <point x="102.0" y="1338.0"/>
      <point x="284.0" y="1131.0"/>
      <point x="398.0" y="1131" type="qcurve" smooth="yes"/>
      <point x="387.0" y="1131" type="line" smooth="yes"/>
      <point x="495.0" y="1131.0"/>
      <point x="684.0" y="1338.0"/>
      <point x="684.0" y="1329" type="qcurve" smooth="yes"/>
      <point x="684.0" y="156" type="line" smooth="yes"/>
      <point x="684.0" y="145.0"/>
      <point x="497.0" y="341"/>
      <point x="387.0" y="341" type="qcurve" smooth="yes"/>
    </contour>
  </outline>
</glyph>
<glyph name="two" format="2">
  <advance width="692"/>
  <unicode hex="0032"/>
  <outline>
    <contour>
      <point x="706" y="0" type="line"/>
      <point x="-14" y="0" type="line"/>
      <point x="-14.0" y="352" type="line"/>
      <point x="111.0" y="942" type="line" smooth="yes"/>
      <point x="119" y="992"/>
      <point x="126" y="1066"/>
      <point x="126" y="1067" type="qcurve" smooth="yes"/>
      <point x="126" y="1170" type="line" smooth="yes"/>
      <point x="126.0" y="1137.0"/>
      <point x="198" y="1100"/>
      <point x="330" y="1100" type="qcurve" smooth="yes"/>
      <point x="320" y="1100" type="line" smooth="yes"/>
      <point x="435.0" y="1100.0"/>
      <point x="546.0" y="1144"/>
      <point x="552" y="1156" type="qcurve" smooth="yes"/>
      <point x="554" y="994" type="line"/>
      <point x="22" y="990" type="line"/>
      <point x="20" y="1182" type="line" smooth="yes"/>
      <point x="13" y="1332"/>
      <point x="197.0" y="1520.0"/>
      <point x="314" y="1520" type="qcurve" smooth="yes"/>
      <point x="333" y="1520" type="line" smooth="yes"/>
      <point x="485.0" y="1520.0"/>
      <point x="697.0" y="1364.0"/>
      <point x="697" y="1224.0" type="qcurve" smooth="yes"/>
      <point x="697" y="1176.0" type="line" smooth="yes"/>
      <point x="697.0" y="1066.0"/>
      <point x="649" y="872"/>
      <point x="613" y="788.0" type="qcurve" smooth="yes"/>
      <point x="630" y="435.0" type="line"/>
      <point x="706" y="435" type="line"/>
    </contour>
  </outline>
</glyph>
<glyph name="three" format="2">
  <advance width="734"/>
  <unicode hex="0033"/>
  <outline>
    <contour>
      <point x="270" y="547.0" type="qcurve" smooth="yes"/>
      <point x="76" y="548" type="line"/>
      <point x="76" y="934" type="line"/>
      <point x="159" y="937" type="line" smooth="yes"/>
      <point x="192" y="938"/>
      <point x="177.0" y="915.0"/>
      <point x="177" y="985.0" type="qcurve" smooth="yes"/>
      <point x="177" y="1123.0" type="line" smooth="yes"/>
      <point x="177.0" y="1128.0"/>
      <point x="281.0" y="1108.0"/>
      <point x="364" y="1108.0" type="qcurve"/>
      <point x="370" y="1108.0" type="line"/>
      <point x="440.0" y="1108.0"/>
      <point x="519.0" y="1126"/>
      <point x="531" y="1135.0" type="qcurve" smooth="yes"/>
      <point x="535" y="1041.0" type="line"/>
      <point x="28" y="1065.0" type="line"/>
      <point x="27" y="1227.0" type="line" smooth="yes"/>
      <point x="17" y="1364"/>
      <point x="208.0" y="1517.0"/>
      <point x="336" y="1517.0" type="qcurve"/>
      <point x="349" y="1517.0" type="line"/>
      <point x="480" y="1517.0"/>
      <point x="705.0" y="1374.0"/>
      <point x="705" y="1245.0" type="qcurve" smooth="yes"/>
      <point x="705" y="1097.0" type="line" smooth="yes"/>
      <point x="705.0" y="973.0"/>
      <point x="617" y="839.0"/>
      <point x="596" y="812.0" type="qcurve"/>
      <point x="643" y="787.0"/>
      <point x="731.0" y="683.0"/>
      <point x="731" y="560.0" type="qcurve" smooth="yes"/>
      <point x="731" y="302.0" type="line" smooth="yes"/>
      <point x="731.0" y="156.0"/>
      <point x="550" y="-30.0"/>
      <point x="378" y="-30.0" type="qcurve"/>
      <point x="374" y="-30.0" type="line"/>
      <point x="216" y="-30.0"/>
      <point x="16" y="118.0"/>
      <point x="16" y="240.0" type="qcurve" smooth="yes"/>
      <point x="14" y="515.0" type="line"/>
      <point x="515" y="515.0" type="line"/>
      <point x="513.0" y="286" type="line" smooth="yes"/>
      <point x="509" y="289"/>
      <point x="370.0" y="321"/>
      <point x="327.0" y="321" type="qcurve"/>
      <point x="320.0" y="321" type="line"/>
      <point x="272.0" y="321"/>
      <point x="161.0" y="314.0"/>
      <point x="161.0" y="384" type="qcurve" smooth="yes"/>
      <point x="161" y="510.0" type="line" smooth="yes"/>
      <point x="161.0" y="583.0"/>
      <point x="244" y="543"/>
    </contour>
  </outline>
</glyph>
<glyph name="four" format="2">
  <advance width="849"/>
  <unicode hex="0034"/>
  <outline>
    <contour>
      <point x="247" y="0" type="line"/>
      <point x="267" y="1504" type="line"/>
      <point x="787" y="1501" type="line"/>
      <point x="787" y="2" type="line"/>
    </contour>
    <contour>
      <point x="803" y="615" type="line"/>
      <point x="803" y="188" type="line"/>
      <point x="29" y="188" type="line"/>
      <point x="-17" y="670" type="line"/>
      <point x="176" y="1492" type="line"/>
      <point x="538" y="1293" type="line"/>
      <point x="416" y="617" type="line"/>
    </contour>
  </outline>
</glyph>
<glyph name="five" format="2">
  <advance width="824"/>
  <unicode hex="0035"/>
  <outline>
    <contour>
      <point x="552" y="1060" type="line" smooth="yes"/>
      <point x="742.0" y="1060.0"/>
      <point x="795.0" y="852.0"/>
      <point x="795" y="674" type="qcurve" smooth="yes"/>
      <point x="795" y="395" type="line" smooth="yes"/>
      <point x="795.0" y="199"/>
      <point x="587.0" y="-15.0"/>
      <point x="440" y="-15" type="qcurve" smooth="yes"/>
      <point x="413" y="-15" type="line" smooth="yes"/>
      <point x="264" y="-15"/>
      <point x="58" y="178"/>
      <point x="61" y="317" type="qcurve" smooth="yes"/>
      <point x="61" y="538" type="line"/>
      <point x="615" y="540.0" type="line"/>
      <point x="613.0" y="306" type="line" smooth="yes"/>
      <point x="605" y="300"/>
      <point x="523.0" y="341"/>
      <point x="436.0" y="341" type="qcurve" smooth="yes"/>
      <point x="432.0" y="341" type="line" smooth="yes"/>
      <point x="322.0" y="341.0"/>
      <point x="258.0" y="260.0"/>
      <point x="258.0" y="263" type="qcurve" smooth="yes"/>
      <point x="258.0" y="771" type="line" smooth="yes"/>
      <point x="258.0" y="790.0"/>
      <point x="351.0" y="699.0"/>
      <point x="449.0" y="699" type="qcurve" smooth="yes"/>
      <point x="425.0" y="699" type="line" smooth="yes"/>
      <point x="448.0" y="699.0"/>
      <point x="475.0" y="608"/>
      <point x="516.0" y="580" type="qcurve"/>
      <point x="3" y="582" type="line"/>
      <point x="11" y="1500" type="line"/>
      <point x="745" y="1500" type="line"/>
      <point x="745" y="1085" type="line"/>
      <point x="393" y="1085" type="line"/>
      <point x="380" y="972" type="line"/>
      <point x="393" y="1008"/>
      <point x="475.0" y="1060.0"/>
      <point x="500" y="1060" type="qcurve" smooth="yes"/>
    </contour>
  </outline>
</glyph>
<glyph name="six" format="2">
  <advance width="814"/>
  <unicode hex="0036"/>
  <outline>
    <contour>
      <point x="611.0" y="501" type="qcurve"/>
      <point x="611.0" y="360" type="line" smooth="yes"/>
      <point x="611.0" y="356"/>
      <point x="474.0" y="356.0"/>
      <point x="425.0" y="356.0" type="qcurve" smooth="yes"/>
      <point x="421.0" y="356.0" type="line" smooth="yes"/>
      <point x="340.0" y="356.0"/>
      <point x="240" y="362"/>
      <point x="240.0" y="361" type="qcurve" smooth="yes"/>
      <point x="240.0" y="613" type="line" smooth="yes"/>
      <point x="240.0" y="623"/>
      <point x="313.0" y="634"/>
      <point x="406.0" y="634" type="qcurve" smooth="yes"/>
      <point x="404.0" y="634" type="line" smooth="yes"/>
      <point x="472.0" y="634"/>
      <point x="559" y="585"/>
      <point x="603.0" y="565" type="qcurve" smooth="yes"/>
      <point x="604.0" y="487" type="line"/>
      <point x="394" y="505.0" type="line"/>
      <point x="394" y="519.0" type="line" smooth="yes"/>
      <point x="394" y="708.0"/>
      <point x="479" y="960.0"/>
      <point x="577" y="960.0" type="qcurve" smooth="yes"/>
      <point x="581" y="960.0" type="line" smooth="yes"/>
      <point x="693" y="960.0"/>
      <point x="816" y="757.0"/>
      <point x="816" y="592.0" type="qcurve" smooth="yes"/>
      <point x="816" y="367.0" type="line" smooth="yes"/>
      <point x="816" y="210.0"/>
      <point x="621" y="-14.0"/>
      <point x="446" y="-14.0" type="qcurve" smooth="yes"/>
      <point x="441.0" y="-14.0" type="line" smooth="yes"/>
      <point x="248.0" y="-14.0"/>
      <point x="70.0" y="242"/>
      <point x="66.0" y="446.0" type="qcurve" smooth="yes"/>
      <point x="65.0" y="783" type="line" smooth="yes"/>
      <point x="59.0" y="1197"/>
      <point x="409.0" y="1520"/>
      <point x="648.0" y="1529" type="qcurve" smooth="yes"/>
      <point x="672" y="1529" type="line"/>
      <point x="672" y="1094" type="line"/>
      <point x="658" y="1093" type="line" smooth="yes"/>
      <point x="462" y="1084"/>
      <point x="606.0" y="821"/>
    </contour>
  </outline>
</glyph>
<glyph name="seven" format="2">
  <advance width="584"/>
  <unicode hex="0037"/>
  <outline>
    <contour>
      <point x="-67" y="1500" type="line"/>
      <point x="610" y="1500" type="line"/>
      <point x="611" y="1086" type="line"/>
      <point x="452" y="0" type="line"/>
      <point x="-127" y="0" type="line"/>
      <point x="90" y="1085" type="line"/>
      <point x="-67" y="1085" type="line"/>
    </contour>
  </outline>
</glyph>
<glyph name="nine" format="2">
  <advance width="814"/>
  <unicode hex="0039"/>
  <outline>
    <contour>
      <point x="203.0" y="967.0" type="qcurve"/>
      <point x="203.0" y="1146.0" type="line" smooth="yes"/>
      <point x="203.0" y="1132"/>
      <point x="338.0" y="1132"/>
      <point x="387.0" y="1132.0" type="qcurve" smooth="yes"/>
      <point x="391.0" y="1132.0" type="line" smooth="yes"/>
      <point x="472" y="1132"/>
      <point x="574.0" y="1107.0"/>
      <point x="574.0" y="1097.0" type="qcurve" smooth="yes"/>
      <point x="574.0" y="855.0" type="line" smooth="yes"/>
      <point x="574" y="845"/>
      <point x="501" y="854"/>
      <point x="408.0" y="854.0" type="qcurve" smooth="yes"/>
      <point x="410.0" y="854.0" type="line" smooth="yes"/>
      <point x="342" y="854"/>
      <point x="255.0" y="883.0"/>
      <point x="211.0" y="903.0" type="qcurve" smooth="yes"/>
      <point x="210.0" y="995.0" type="line"/>
      <point x="420.0" y="973.0" type="line"/>
      <point x="420.0" y="959.0" type="line" smooth="yes"/>
      <point x="420" y="770"/>
      <point x="335.0" y="520.0"/>
      <point x="237.0" y="520.0" type="qcurve" smooth="yes"/>
      <point x="233.0" y="520.0" type="line" smooth="yes"/>
      <point x="121.0" y="520.0"/>
      <point x="-2.0" y="743.0"/>
      <point x="-2.0" y="898.0" type="qcurve" smooth="yes"/>
      <point x="-2.0" y="1101.0" type="line" smooth="yes"/>
      <point x="-2.0" y="1280.0"/>
      <point x="193.0" y="1514.0"/>
      <point x="368.0" y="1514.0" type="qcurve" smooth="yes"/>
      <point x="373.0" y="1514.0" type="line" smooth="yes"/>
      <point x="566.0" y="1514.0"/>
      <point x="744.0" y="1311.0"/>
      <point x="748.0" y="1163.0" type="qcurve" smooth="yes"/>
      <point x="749.0" y="717.0" type="line" smooth="yes"/>
      <point x="755.0" y="337.0"/>
      <point x="349.0" y="-23.0"/>
      <point x="166.0" y="-32.0" type="qcurve" smooth="yes"/>
      <point x="142.0" y="-32.0" type="line"/>
      <point x="142.0" y="427.0" type="line"/>
      <point x="156.0" y="428.0" type="line" smooth="yes"/>
      <point x="308.0" y="437.0"/>
      <point x="206.0" y="693.0"/>
    </contour>
  </outline>
</glyph>
<glyph name="colon" format="2">
  <advance width="610"/>
  <unicode hex="003A"/>
  <outline>
    <contour>
      <point x="302" y="-32.0" type="line" smooth="yes"/>
      <point x="429" y="-32.0"/>
      <point x="589" y="123"/>
      <point x="589" y="237.0" type="qcurve" smooth="yes"/>
      <point x="589" y="253" type="line" smooth="yes"/>
      <point x="589" y="366"/>
      <point x="432" y="524"/>
      <point x="302" y="524" type="qcurve" smooth="yes"/>
      <point x="297" y="524" type="line" smooth="yes"/>
      <point x="177" y="524"/>
      <point x="24" y="366"/>
      <point x="24" y="253" type="qcurve" smooth="yes"/>
      <point x="24" y="237.0" type="line" smooth="yes"/>
      <point x="24" y="120"/>
      <point x="174" y="-32.0"/>
      <point x="297" y="-32.0" type="qcurve" smooth="yes"/>
    </contour>
    <contour>
      <point x="300" y="524.0" type="line" smooth="yes"/>
      <point x="427" y="524.0"/>
      <point x="588" y="679"/>
      <point x="588" y="793" type="qcurve" smooth="yes"/>
      <point x="588" y="809" type="line" smooth="yes"/>
      <point x="588" y="922"/>
      <point x="430" y="1080"/>
      <point x="300" y="1080" type="qcurve" smooth="yes"/>
      <point x="295" y="1080" type="line" smooth="yes"/>
      <point x="175" y="1080"/>
      <point x="22" y="922"/>
      <point x="22" y="809" type="qcurve" smooth="yes"/>
      <point x="22" y="793" type="line" smooth="yes"/>
      <point x="22" y="676"/>
      <point x="172" y="524.0"/>
      <point x="295" y="524.0" type="qcurve" smooth="yes"/>
    </contour>
  </outline>
</glyph>
<glyph name="semicolon" format="2">
  <advance width="610"/>
  <unicode hex="003B"/>
  <outline>
    <contour>
      <point x="299" y="524.0" type="line" smooth="yes"/>
      <point x="426" y="524.0"/>
      <point x="587" y="679"/>
      <point x="587" y="793" type="qcurve" smooth="yes"/>
      <point x="587" y="809" type="line" smooth="yes"/>
      <point x="587" y="922"/>
      <point x="429" y="1080"/>
      <point x="299" y="1080" type="qcurve" smooth="yes"/>
      <point x="294" y="1080" type="line" smooth="yes"/>
      <point x="174" y="1080"/>
      <point x="21" y="922"/>
      <point x="21" y="809" type="qcurve" smooth="yes"/>
      <point x="21" y="793" type="line" smooth="yes"/>
      <point x="21" y="676"/>
      <point x="171" y="524.0"/>
      <point x="294" y="524.0" type="qcurve" smooth="yes"/>
    </contour>
    <contour>
      <point x="-6.0" y="-182" type="line"/>
      <point x="32.0" y="258" type="line" smooth="yes"/>
      <point x="41.0" y="344"/>
      <point x="192.0" y="500"/>
      <point x="294.0" y="500" type="qcurve" smooth="yes"/>
      <point x="309.0" y="500.0" type="line" smooth="yes"/>
      <point x="419.0" y="500.0"/>
      <point x="549.0" y="370.0"/>
      <point x="549.0" y="285.0" type="qcurve" smooth="yes"/>
      <point x="549.0" y="270" type="line" smooth="yes"/>
      <point x="549.0" y="198"/>
      <point x="308.0" y="-142"/>
      <point x="205.0" y="-264.0" type="qcurve"/>
    </contour>
  </outline>
</glyph>
<glyph name="equal" format="2">
  <advance width="1500"/>
  <unicode hex="003D"/>
  <outline>
    <contour>
      <point x="1225" y="190" type="line"/>
      <point x="266" y="190" type="line"/>
      <point x="266" y="653" type="line"/>
      <point x="1226" y="653" type="line"/>
    </contour>
    <contour>
      <point x="1226" y="640" type="line"/>
      <point x="266" y="640" type="line"/>
      <point x="266" y="1105" type="line"/>
      <point x="1226" y="1105" type="line"/>
    </contour>
  </outline>
</glyph>
<glyph name="greater" format="2">
  <advance width="750"/>
  <unicode hex="003E"/>
  <outline>
    <contour>
      <point x="812.0" y="955.0" type="line"/>
      <point x="812.0" y="485.0" type="line"/>
      <point x="-38.0" y="90.0" type="line"/>
      <point x="-43.0" y="624.0" type="line"/>
      <point x="123.0" y="707.0" type="line"/>
      <point x="-43.0" y="837.0" type="line"/>
      <point x="-38.0" y="1366.0" type="line"/>
    </contour>
  </outline>
</glyph>
<glyph name="question" format="2">
  <advance width="787"/>
  <unicode hex="003F"/>
  <outline>
    <contour>
      <point x="294.0" y="-52" type="line" smooth="yes"/>
      <point x="440" y="-52"/>
      <point x="622" y="114"/>
      <point x="622" y="236" type="qcurve" smooth="yes"/>
      <point x="622" y="254" type="line" smooth="yes"/>
      <point x="622" y="375"/>
      <point x="443" y="545"/>
      <point x="294.0" y="545" type="qcurve" smooth="yes"/>
      <point x="288" y="545" type="line" smooth="yes"/>
      <point x="150" y="545"/>
      <point x="-20" y="375"/>
      <point x="-20" y="254" type="qcurve" smooth="yes"/>
      <point x="-20" y="236" type="line" smooth="yes"/>
      <point x="-20" y="111"/>
      <point x="147" y="-52"/>
      <point x="288" y="-52" type="qcurve" smooth="yes"/>
    </contour>
    <contour>
      <point x="542" y="553" type="line"/>
      <point x="0" y="553" type="line"/>
      <point x="-2" y="941" type="line"/>
      <point x="162" y="893"/>
      <point x="241.0" y="988.0"/>
      <point x="241.0" y="1065.0" type="qcurve" smooth="yes"/>
      <point x="241.0" y="1135.0" type="line" smooth="yes"/>
      <point x="241.0" y="1162.0"/>
      <point x="319.0" y="1116.0"/>
      <point x="362.0" y="1116.0" type="qcurve" smooth="yes"/>
      <point x="340" y="1116" type="line" smooth="yes"/>
      <point x="412" y="1116.0"/>
      <point x="472.0" y="1153.0"/>
      <point x="474" y="1170" type="qcurve" smooth="yes"/>
      <point x="476" y="997" type="line"/>
      <point x="-71" y="1000.0" type="line"/>
      <point x="-71" y="1201.0" type="line" smooth="yes"/>
      <point x="-71" y="1334"/>
      <point x="162" y="1522.0"/>
      <point x="378" y="1522.0" type="qcurve" smooth="yes"/>
      <point x="410.0" y="1522.0" type="line" smooth="yes"/>
      <point x="607.0" y="1523.0"/>
      <point x="840.0" y="1365.0"/>
      <point x="840.0" y="1110.0" type="qcurve" smooth="yes"/>
      <point x="840.0" y="1015.0" type="line" smooth="yes"/>
      <point x="840.0" y="772.0"/>
      <point x="687.0" y="558"/>
      <point x="541.0" y="565" type="qcurve"/>
    </contour>
  </outline>
</glyph>
<glyph name="at" format="2">
  <advance width="1417"/>
  <unicode hex="0040"/>
  <outline>
    <contour>
      <point x="835" y="805" type="qcurve" smooth="yes"/>
      <point x="798" y="517" type="line" smooth="yes"/>
      <point x="783" y="400"/>
      <point x="645" y="261"/>
      <point x="549" y="263" type="qcurve" smooth="yes"/>
      <point x="545" y="263" type="line" smooth="yes"/>
      <point x="446" y="265"/>
      <point x="354" y="454"/>
      <point x="376" y="628" type="qcurve" smooth="yes"/>
      <point x="399" y="803" type="line" smooth="yes"/>
      <point x="417" y="943"/>
      <point x="557" y="1111"/>
      <point x="670" y="1108" type="qcurve" smooth="yes"/>
      <point x="674" y="1108" type="line" smooth="yes"/>
      <point x="776" y="1106"/>
      <point x="852" y="939"/>
    </contour>
    <contour>
      <point x="684" y="726.0" type="line" smooth="yes"/>
      <point x="692.0" y="811.0"/>
      <point x="727" y="843.0"/>
      <point x="750" y="845.0" type="qcurve" smooth="yes"/>
      <point x="750" y="845.0" type="line" smooth="yes"/>
      <point x="809" y="846.0"/>
      <point x="843" y="807.0"/>
      <point x="840" y="762.0" type="qcurve" smooth="yes"/>
      <point x="817" y="590.0" type="line" smooth="yes"/>
      <point x="810" y="540.0"/>
      <point x="746" y="499.0"/>
      <point x="743" y="499.0" type="qcurve" smooth="yes"/>
      <point x="743" y="499.0" type="line" smooth="yes"/>
      <point x="703" y="499.0"/>
      <point x="669" y="552.0"/>
      <point x="671" y="610.0" type="qcurve" smooth="yes"/>
    </contour>
    <contour>
      <point x="720" y="695" type="qcurve" smooth="yes"/>
      <point x="784" y="1121" type="line"/>
      <point x="1159" y="1119" type="line"/>
      <point x="1098" y="629" type="line" smooth="yes"/>
      <point x="1093" y="593"/>
      <point x="1098" y="541.0"/>
      <point x="1095" y="541" type="qcurve" smooth="yes"/>
      <point x="1143" y="541"/>
      <point x="1193.0" y="620"/>
      <point x="1193.0" y="789" type="qcurve" smooth="yes"/>
      <point x="1193.0" y="976"/>
      <point x="977.0" y="1282"/>
      <point x="732.0" y="1282" type="qcurve" smooth="yes"/>
      <point x="508.0" y="1282"/>
      <point x="269.0" y="933"/>
      <point x="269.0" y="662" type="qcurve" smooth="yes"/>
      <point x="269.0" y="372"/>
      <point x="544" y="47"/>
      <point x="721.0" y="47" type="qcurve" smooth="yes"/>
      <point x="842.0" y="47"/>
      <point x="1033.0" y="159"/>
      <point x="1068.0" y="204" type="qcurve"/>
      <point x="1224" y="18.0" type="line"/>
      <point x="1141" y="-79.0"/>
      <point x="881" y="-182.0"/>
      <point x="709" y="-182.0" type="qcurve" smooth="yes"/>
      <point x="425" y="-182.0"/>
      <point x="-50" y="282.0"/>
      <point x="-50" y="675.0" type="qcurve" smooth="yes"/>
      <point x="-50" y="1057.0"/>
      <point x="391" y="1529.0"/>
      <point x="726" y="1529.0" type="qcurve" smooth="yes"/>
      <point x="1094" y="1529.0"/>
      <point x="1492" y="1130"/>
      <point x="1492" y="830.0" type="qcurve" smooth="yes"/>
      <point x="1492.0" y="578"/>
      <point x="1159.0" y="269.0"/>
      <point x="923" y="269" type="qcurve" smooth="yes"/>
      <point x="753" y="269"/>
      <point x="687" y="499"/>
    </contour>
  </outline>
</glyph>
<glyph name="A" format="2">
  <advance width="761"/>
  <unicode hex="0041"/>
  <outline>
    <contour>
      <point x="611" y="100" type="line"/>
      <point x="161" y="100" type="line"/>
      <point x="161" y="485" type="line"/>
      <point x="611" y="485" type="line"/>
    </contour>
    <contour>
      <point x="651" y="1500" type="line"/>
      <point x="801" y="0" type="line"/>
      <point x="228" y="0.0" type="line"/>
      <point x="398" y="579" type="line"/>
      <point x="366" y="579" type="line"/>
      <point x="567" y="0.0" type="line"/>
      <point x="-40" y="0" type="line"/>
      <point x="130" y="1500" type="line"/>
    </contour>
  </outline>
</glyph>
<glyph name="B" format="2">
  <advance width="1000"/>
  <unicode hex="0042"/>
  <outline>
    <contour>
      <point x="110" y="0" type="line"/>
      <point x="110" y="1500" type="line"/>
      <point x="721" y="1500" type="line"/>
      <point x="721" y="0" type="line"/>
    </contour>
    <contour>
      <point x="729" y="781" type="line"/>
      <point x="790" y="781"/>
      <point x="974" y="648"/>
      <point x="974" y="508" type="qcurve" smooth="yes"/>
      <point x="974" y="323" type="line" smooth="yes"/>
      <point x="974" y="179"/>
      <point x="791.0" y="0.0"/>
      <point x="654" y="0" type="qcurve" smooth="yes"/>
      <point x="411" y="0" type="line"/>
      <point x="411" y="370.0" type="line"/>
      <point x="311" y="370.0" type="line" smooth="yes"/>
      <point x="367.0" y="370.0"/>
      <point x="396" y="397"/>
      <point x="396" y="411.0" type="qcurve" smooth="yes"/>
      <point x="396" y="524.0" type="line" smooth="yes"/>
      <point x="396" y="556"/>
      <point x="354.0" y="588.0"/>
      <point x="285" y="588.0" type="qcurve" smooth="yes"/>
      <point x="411" y="588.0" type="line"/>
      <point x="411" y="921.0" type="line"/>
      <point x="365" y="921.0" type="line" smooth="yes"/>
      <point x="405.0" y="921.0"/>
      <point x="410" y="935"/>
      <point x="410" y="942.0" type="qcurve" smooth="yes"/>
      <point x="410" y="1138.0" type="line" smooth="yes"/>
      <point x="410" y="1137"/>
      <point x="393.0" y="1118.0"/>
      <point x="379" y="1118.0" type="qcurve" smooth="yes"/>
      <point x="411" y="1118.0" type="line"/>
      <point x="411" y="1500" type="line"/>
      <point x="653" y="1500" type="line" smooth="yes"/>
      <point x="794.0" y="1500.0"/>
      <point x="971" y="1345"/>
      <point x="971" y="1214" type="qcurve" smooth="yes"/>
      <point x="971" y="1021" type="line" smooth="yes"/>
      <point x="971.0" y="871.0"/>
      <point x="804.0" y="764.0"/>
      <point x="682" y="764" type="qcurve"/>
    </contour>
  </outline>
</glyph>
<glyph name="C" format="2">
  <advance width="765"/>
  <unicode hex="0043"/>
  <outline>
    <contour>
      <point x="397.0" y="409" type="line" smooth="yes"/>
      <point x="266.0" y="409.0"/>
      <point x="118.0" y="392"/>
      <point x="110" y="390" type="qcurve" smooth="yes"/>
      <point x="109" y="652.0" type="line"/>
      <point x="712.0" y="652.0" type="line"/>
      <point x="709.0" y="293.0" type="line" smooth="yes"/>
      <point x="705" y="158"/>
      <point x="564" y="-22.0"/>
      <point x="422" y="-22.0" type="qcurve" smooth="yes"/>
      <point x="388" y="-22.0" type="line" smooth="yes"/>
      <point x="249" y="-22.0"/>
      <point x="82" y="195.0"/>
      <point x="82" y="377.0" type="qcurve" smooth="yes"/>
      <point x="82" y="1128.0" type="line" smooth="yes"/>
      <point x="82" y="1308.0"/>
      <point x="243" y="1520.0"/>
      <point x="377" y="1520.0" type="qcurve" smooth="yes"/>
      <point x="416" y="1520.0" type="line" smooth="yes"/>
      <point x="549" y="1520.0"/>
      <point x="705" y="1349"/>
      <point x="712" y="1200.0" type="qcurve" smooth="yes"/>
      <point x="719" y="847.0" type="line"/>
      <point x="111" y="847.0" type="line"/>
      <point x="112.0" y="1130" type="line" smooth="yes"/>
      <point x="112.0" y="1121.0"/>
      <point x="253" y="1075"/>
      <point x="407.0" y="1075" type="qcurve" smooth="yes"/>
      <point x="399.0" y="1075" type="line" smooth="yes"/>
      <point x="551.0" y="1075.0"/>
      <point x="759.0" y="1209.0"/>
      <point x="759.0" y="1275" type="qcurve" smooth="yes"/>
      <point x="759.0" y="219" type="line" smooth="yes"/>
      <point x="759.0" y="282.0"/>
      <point x="544.0" y="409"/>
      <point x="387.0" y="409" type="qcurve" smooth="yes"/>
    </contour>
  </outline>
</glyph>
<glyph name="D" format="2">
  <advance width="1011"/>
  <unicode hex="0044"/>
  <outline>
    <contour>
      <point x="68" y="0" type="line"/>
      <point x="68" y="1500" type="line"/>
      <point x="689" y="1500" type="line"/>
      <point x="689" y="0" type="line"/>
    </contour>
    <contour>
      <point x="520.0" y="406" type="line" smooth="yes"/>
      <point x="458" y="406"/>
      <point x="271.0" y="344"/>
      <point x="271.0" y="314" type="qcurve" smooth="yes"/>
      <point x="271.0" y="1180" type="line" smooth="yes"/>
      <point x="271.0" y="1142"/>
      <point x="463.0" y="1078"/>
      <point x="524.0" y="1084" type="qcurve" smooth="yes"/>
      <point x="465.0" y="1084" type="line"/>
      <point x="465.0" y="1500.0" type="line"/>
      <point x="605" y="1500.0" type="line" smooth="yes"/>
      <point x="767" y="1500.0"/>
      <point x="933" y="1303"/>
      <point x="933" y="1136.0" type="qcurve" smooth="yes"/>
      <point x="933" y="369.0" type="line" smooth="yes"/>
      <point x="933" y="197"/>
      <point x="765" y="0.0"/>
      <point x="603" y="0.0" type="qcurve" smooth="yes"/>
      <point x="465.0" y="0.0" type="line"/>
      <point x="465.0" y="406" type="line"/>
    </contour>
  </outline>
</glyph>
<glyph name="E" format="2">
  <advance width="728"/>
  <unicode hex="0045"/>
  <outline>
    <contour>
      <point x="68" y="0" type="line"/>
      <point x="68" y="1500" type="line"/>
      <point x="704" y="1500" type="line"/>
      <point x="704" y="0" type="line"/>
    </contour>
    <contour>
      <point x="724" y="565" type="line"/>
      <point x="364" y="565" type="line"/>
      <point x="364" y="1010" type="line"/>
      <point x="724" y="1010" type="line"/>
    </contour>
    <contour>
      <point x="784" y="1055" type="line"/>
      <point x="364" y="1055" type="line"/>
      <point x="364" y="1500" type="line"/>
      <point x="784" y="1500" type="line"/>
    </contour>
    <contour>
      <point x="784" y="0" type="line"/>
      <point x="364" y="0" type="line"/>
      <point x="364" y="445" type="line"/>
      <point x="784" y="445" type="line"/>
    </contour>
  </outline>
</glyph>
<glyph name="F" format="2">
  <advance width="730"/>
  <unicode hex="0046"/>
  <outline>
    <contour>
      <point x="68" y="0" type="line"/>
      <point x="68" y="1500" type="line"/>
      <point x="703" y="1500" type="line"/>
      <point x="703" y="0" type="line"/>
    </contour>
    <contour>
      <point x="689" y="518" type="line"/>
      <point x="408" y="518" type="line"/>
      <point x="408" y="963" type="line"/>
      <point x="689" y="963" type="line"/>
    </contour>
    <contour>
      <point x="709" y="1055" type="line"/>
      <point x="408" y="1055" type="line"/>
      <point x="408" y="1500" type="line"/>
      <point x="709" y="1500" type="line"/>
    </contour>
  </outline>
</glyph>
<glyph name="G" format="2">
  <advance width="755"/>
  <unicode hex="0047"/>
  <outline>
    <contour>
      <point x="396.0" y="346.0" type="line" smooth="yes"/>
      <point x="270.0" y="346.0"/>
      <point x="132.0" y="292.0"/>
      <point x="123.0" y="259" type="qcurve" smooth="yes"/>
      <point x="120.0" y="441.0" type="line"/>
      <point x="417" y="440.0" type="line"/>
      <point x="417" y="851.0" type="line"/>
      <point x="703" y="852.0" type="line"/>
      <point x="702.0" y="297.0" type="line" smooth="yes"/>
      <point x="703" y="144"/>
      <point x="558" y="-21.0"/>
      <point x="417" y="-21.0" type="qcurve" smooth="yes"/>
      <point x="373" y="-21.0" type="line" smooth="yes"/>
      <point x="231" y="-21.0"/>
      <point x="82" y="223.0"/>
      <point x="82" y="372.0" type="qcurve" smooth="yes"/>
      <point x="82" y="1132.0" type="line" smooth="yes"/>
      <point x="82" y="1303.0"/>
      <point x="240.0" y="1520.0"/>
      <point x="366" y="1520.0" type="qcurve" smooth="yes"/>
      <point x="419" y="1520.0" type="line" smooth="yes"/>
      <point x="546.0" y="1520.0"/>
      <point x="699" y="1346.0"/>
      <point x="699" y="1193.0" type="qcurve" smooth="yes"/>
      <point x="700" y="935.0" type="line"/>
      <point x="156" y="935.0" type="line"/>
      <point x="156.0" y="1123.0" type="line" smooth="yes"/>
      <point x="169" y="1122"/>
      <point x="298.0" y="1120.0"/>
      <point x="431.0" y="1120.0" type="qcurve" smooth="yes"/>
      <point x="409.0" y="1120.0" type="line" smooth="yes"/>
      <point x="549.0" y="1120.0"/>
      <point x="736.0" y="1210.0"/>
      <point x="736.0" y="1275.0" type="qcurve" smooth="yes"/>
      <point x="736.0" y="230.0" type="line" smooth="yes"/>
      <point x="736.0" y="273.0"/>
      <point x="553.0" y="346"/>
      <point x="378.0" y="346.0" type="qcurve" smooth="yes"/>
    </contour>
  </outline>
</glyph>
<glyph name="H" format="2">
  <advance width="1120"/>
  <unicode hex="0048"/>
  <outline>
    <contour>
      <point x="80" y="0" type="line"/>
      <point x="80" y="1500" type="line"/>
      <point x="715" y="1500" type="line"/>
      <point x="715" y="0" type="line"/>
    </contour>
    <contour>
      <point x="405" y="0" type="line"/>
      <point x="405" y="1500" type="line"/>
      <point x="1040" y="1500" type="line"/>
      <point x="1040" y="0" type="line"/>
    </contour>
    <contour>
      <point x="786" y="560" type="line"/>
      <point x="436" y="560" type="line"/>
      <point x="436" y="1015" type="line"/>
      <point x="786" y="1015" type="line"/>
    </contour>
  </outline>
</glyph>
<glyph name="I" format="2">
  <advance width="650"/>
  <unicode hex="0049"/>
  <outline>
    <contour>
      <point x="13" y="0" type="line"/>
      <point x="13" y="1500" type="line"/>
      <point x="637" y="1500" type="line"/>
      <point x="637" y="0" type="line"/>
    </contour>
    <contour>
      <point x="382" y="0" type="line"/>
      <point x="272" y="0" type="line"/>
      <point x="272" y="435" type="line"/>
      <point x="382" y="435" type="line"/>
    </contour>
    <contour>
      <point x="382" y="1065" type="line"/>
      <point x="272" y="1065" type="line"/>
      <point x="272" y="1500" type="line"/>
      <point x="382" y="1500" type="line"/>
    </contour>
  </outline>
</glyph>
<glyph name="J" format="2">
  <advance width="863"/>
  <unicode hex="004A"/>
  <outline>
    <contour>
      <point x="825" y="341" type="line" smooth="yes"/>
      <point x="825.0" y="101.0"/>
      <point x="547" y="-22"/>
      <point x="377" y="-22" type="qcurve" smooth="yes"/>
      <point x="367" y="-22" type="line" smooth="yes"/>
      <point x="151" y="-22"/>
      <point x="-38" y="138.0"/>
      <point x="-36" y="292" type="qcurve" smooth="yes"/>
      <point x="-35" y="524" type="line"/>
      <point x="482" y="524.0" type="line"/>
      <point x="482.0" y="329" type="line" smooth="yes"/>
      <point x="482" y="355"/>
      <point x="409.0" y="390.0"/>
      <point x="330.0" y="390" type="qcurve" smooth="yes"/>
      <point x="323.0" y="390" type="line" smooth="yes"/>
      <point x="262.0" y="390.0"/>
      <point x="204.0" y="271.0"/>
      <point x="204.0" y="222" type="qcurve" smooth="yes"/>
      <point x="204" y="1500.0" type="line"/>
      <point x="825" y="1500" type="line"/>
    </contour>
  </outline>
</glyph>
<glyph name="K" format="2">
  <advance width="794"/>
  <unicode hex="004B"/>
  <outline>
    <contour>
      <point x="68" y="0" type="line"/>
      <point x="68" y="1500" type="line"/>
      <point x="703" y="1500" type="line"/>
      <point x="696" y="1240" type="line"/>
      <point x="648" y="1433" type="line"/>
      <point x="331" y="1500" type="line"/>
      <point x="966" y="1500" type="line"/>
      <point x="721" y="630" type="line"/>
      <point x="657" y="676" type="line"/>
      <point x="696" y="513" type="line"/>
      <point x="703" y="0" type="line"/>
    </contour>
    <contour>
      <point x="188" y="518" type="line"/>
      <point x="578" y="1036" type="line"/>
      <point x="994" y="0" type="line"/>
      <point x="261" y="0" type="line"/>
    </contour>
  </outline>
</glyph>
<glyph name="L" format="2">
  <advance width="751"/>
  <unicode hex="004C"/>
  <outline>
    <contour>
      <point x="67" y="0" type="line"/>
      <point x="67" y="1500" type="line"/>
      <point x="707" y="1500" type="line"/>
      <point x="707" y="0" type="line"/>
    </contour>
    <contour>
      <point x="724" y="0" type="line"/>
      <point x="310" y="0" type="line"/>
      <point x="310" y="445" type="line"/>
      <point x="724" y="445" type="line"/>
    </contour>
  </outline>
</glyph>
<glyph name="M" format="2">
  <advance width="1468"/>
  <unicode hex="004D"/>
  <outline>
    <contour>
      <point x="68" y="0" type="line"/>
      <point x="68" y="1500" type="line"/>
      <point x="839" y="1500" type="line"/>
      <point x="763" y="865" type="line"/>
      <point x="764" y="865" type="line"/>
      <point x="672" y="1500" type="line"/>
      <point x="1410" y="1500" type="line"/>
      <point x="1410" y="0" type="line"/>
      <point x="884" y="0" type="line"/>
      <point x="884" y="545" type="line"/>
      <point x="983" y="0" type="line"/>
      <point x="505" y="0" type="line"/>
      <point x="604" y="536" type="line"/>
      <point x="604" y="0" type="line"/>
    </contour>
  </outline>
</glyph>
<glyph name="N" format="2">
  <advance width="1033"/>
  <unicode hex="004E"/>
  <outline>
    <contour>
      <point x="68" y="0" type="line"/>
      <point x="68" y="1500" type="line"/>
      <point x="609" y="1498" type="line"/>
      <point x="434" y="1188" type="line"/>
      <point x="434" y="1500" type="line"/>
      <point x="965" y="1500" type="line"/>
      <point x="965" y="0" type="line"/>
      <point x="399" y="0" type="line"/>
      <point x="399" y="63" type="line"/>
      <point x="579" y="356" type="line"/>
      <point x="579" y="0" type="line"/>
    </contour>
  </outline>
</glyph>
<glyph name="O" format="2">
  <advance width="823"/>
  <unicode hex="004F"/>
  <outline>
    <contour>
      <point x="410" y="-22.0" type="line" smooth="yes"/>
      <point x="262" y="-22.0"/>
      <point x="78" y="200.0"/>
      <point x="78" y="368.0" type="qcurve" smooth="yes"/>
      <point x="78" y="1127.0" type="line" smooth="yes"/>
      <point x="78" y="1285.0"/>
      <point x="259" y="1518.0"/>
      <point x="408" y="1518.0" type="qcurve" smooth="yes"/>
      <point x="411" y="1518.0" type="line" smooth="yes"/>
      <point x="564" y="1518.0"/>
      <point x="745.0" y="1295.0"/>
      <point x="745" y="1127.0" type="qcurve" smooth="yes"/>
      <point x="745" y="368.0" type="line" smooth="yes"/>
      <point x="745.0" y="200.0"/>
      <point x="567" y="-22.0"/>
      <point x="413" y="-22.0" type="qcurve" smooth="yes"/>
    </contour>
    <contour>
      <point x="409.0" y="372.0" type="line" smooth="yes"/>
      <point x="245.0" y="372.0"/>
      <point x="68.0" y="231.0"/>
      <point x="68.0" y="237" type="qcurve" smooth="yes"/>
      <point x="68.0" y="1239" type="line" smooth="yes"/>
      <point x="68.0" y="1244.0"/>
      <point x="242.0" y="1104"/>
      <point x="409.0" y="1104" type="qcurve" smooth="yes"/>
      <point x="416.0" y="1104" type="line" smooth="yes"/>
      <point x="573.0" y="1104"/>
      <point x="755.0" y="1244.0"/>
      <point x="755.0" y="1239" type="qcurve" smooth="yes"/>
      <point x="755.0" y="237" type="line" smooth="yes"/>
      <point x="755.0" y="231.0"/>
      <point x="576.0" y="372.0"/>
      <point x="416.0" y="372.0" type="qcurve" smooth="yes"/>
    </contour>
  </outline>
</glyph>
<glyph name="P" format="2">
  <advance width="906"/>
  <unicode hex="0050"/>
  <outline>
    <contour>
      <point x="67" y="0" type="line"/>
      <point x="67" y="1500" type="line"/>
      <point x="705" y="1500" type="line"/>
      <point x="705" y="0" type="line"/>
    </contour>
    <contour>
      <point x="585" y="355.0" type="qcurve" smooth="yes"/>
      <point x="568.0" y="355" type="line"/>
      <point x="568.0" y="762.0" type="line"/>
      <point x="351" y="762.0" type="line" smooth="yes"/>
      <point x="303.0" y="762.0"/>
      <point x="258.0" y="733.0"/>
      <point x="258.0" y="735.0" type="qcurve" smooth="yes"/>
      <point x="258.0" y="1077.0" type="line" smooth="yes"/>
      <point x="258.0" y="1095.0"/>
      <point x="305.0" y="1085.0"/>
      <point x="350" y="1085.0" type="qcurve" smooth="yes"/>
      <point x="568.0" y="1085.0" type="line"/>
      <point x="568" y="1500" type="line"/>
      <point x="589" y="1500.0" type="line" smooth="yes"/>
      <point x="730.0" y="1500.0"/>
      <point x="892" y="1307"/>
      <point x="892" y="1145.0" type="qcurve" smooth="yes"/>
      <point x="892" y="729.0" type="line" smooth="yes"/>
      <point x="892" y="549"/>
      <point x="720.0" y="355.0"/>
    </contour>
  </outline>
</glyph>
<glyph name="Q" format="2">
  <advance width="823"/>
  <unicode hex="0051"/>
  <outline>
    <contour>
      <point x="410" y="8.0" type="line" smooth="yes"/>
      <point x="262" y="8"/>
      <point x="78" y="210.0"/>
      <point x="78" y="398.0" type="qcurve" smooth="yes"/>
      <point x="78" y="1127.0" type="line" smooth="yes"/>
      <point x="78" y="1295.0"/>
      <point x="259" y="1518.0"/>
      <point x="408" y="1518.0" type="qcurve" smooth="yes"/>
      <point x="411" y="1518.0" type="line" smooth="yes"/>
      <point x="564" y="1518.0"/>
      <point x="745.0" y="1295.0"/>
      <point x="745" y="1127.0" type="qcurve" smooth="yes"/>
      <point x="745" y="398.0" type="line" smooth="yes"/>
      <point x="745.0" y="240.0"/>
      <point x="537.0" y="8.0"/>
      <point x="413" y="8.0" type="qcurve" smooth="yes"/>
    </contour>
    <contour>
      <point x="409.0" y="382.0" type="line" smooth="yes"/>
      <point x="245" y="382"/>
      <point x="68.0" y="251.0"/>
      <point x="68.0" y="237" type="qcurve" smooth="yes"/>
      <point x="68.0" y="1239" type="line" smooth="yes"/>
      <point x="68.0" y="1224"/>
      <point x="242.0" y="1104"/>
      <point x="409.0" y="1104" type="qcurve" smooth="yes"/>
      <point x="416.0" y="1104" type="line" smooth="yes"/>
      <point x="573.0" y="1104"/>
      <point x="755.0" y="1224"/>
      <point x="755.0" y="1239" type="qcurve" smooth="yes"/>
      <point x="755.0" y="237" type="line" smooth="yes"/>
      <point x="755.0" y="251.0"/>
      <point x="576" y="382"/>
      <point x="416.0" y="382.0" type="qcurve" smooth="yes"/>
    </contour>
    <contour>
      <point x="303" y="279" type="line"/>
      <point x="866" y="263" type="line"/>
      <point x="866" y="-162" type="line"/>
      <point x="304" y="-21" type="line"/>
    </contour>
  </outline>
</glyph>
<glyph name="R" format="2">
  <advance width="853"/>
  <unicode hex="0052"/>
  <outline>
    <contour>
      <point x="68" y="0" type="line"/>
      <point x="68" y="1500" type="line"/>
      <point x="688" y="1500" type="line"/>
      <point x="688" y="0" type="line"/>
    </contour>
    <contour>
      <point x="719" y="538" type="qcurve" smooth="yes"/>
      <point x="414" y="538" type="line"/>
      <point x="414" y="920" type="line"/>
      <point x="438.0" y="920" type="line" smooth="yes"/>
      <point x="397.0" y="920.0"/>
      <point x="378.0" y="872"/>
      <point x="378.0" y="819" type="qcurve" smooth="yes"/>
      <point x="378.0" y="1155" type="line" smooth="yes"/>
      <point x="378.0" y="1125"/>
      <point x="398.0" y="1097.0"/>
      <point x="428.0" y="1097" type="qcurve" smooth="yes"/>
      <point x="414" y="1097" type="line"/>
      <point x="414" y="1500" type="line"/>
      <point x="702" y="1500" type="line" smooth="yes"/>
      <point x="820.0" y="1500.0"/>
      <point x="994.0" y="1368.0"/>
      <point x="994" y="1227" type="qcurve" smooth="yes"/>
      <point x="994" y="790" type="line" smooth="yes"/>
      <point x="994.0" y="652.0"/>
      <point x="844.0" y="538.0"/>
    </contour>
    <contour>
      <point x="795" y="813" type="line"/>
      <point x="1001" y="0" type="line"/>
      <point x="364" y="0" type="line"/>
      <point x="283" y="624" type="line"/>
    </contour>
  </outline>
</glyph>
<glyph name="S" format="2">
  <advance width="760"/>
  <unicode hex="0053"/>
  <outline>
    <contour>
      <point x="193.0" y="366" type="line" smooth="yes"/>
      <point x="193" y="360"/>
      <point x="227" y="372"/>
      <point x="184" y="481" type="qcurve" smooth="yes"/>
      <point x="76" y="629"/>
      <point x="-16" y="905.0"/>
      <point x="-16" y="1095.0" type="qcurve" smooth="yes"/>
      <point x="-16" y="1150.0" type="line" smooth="yes"/>
      <point x="-16" y="1318.0"/>
      <point x="230.0" y="1520.0"/>
      <point x="376" y="1520.0" type="qcurve" smooth="yes"/>
      <point x="391" y="1520.0" type="line" smooth="yes"/>
      <point x="523" y="1520.0"/>
      <point x="764" y="1379"/>
      <point x="747" y="1266.0" type="qcurve" smooth="yes"/>
      <point x="747" y="1056.0" type="line"/>
      <point x="183" y="1056.0" type="line"/>
      <point x="183.0" y="1290" type="line" smooth="yes"/>
      <point x="183.0" y="1188.0"/>
      <point x="275.0" y="1086.0"/>
      <point x="386.0" y="1086.0" type="qcurve" smooth="yes"/>
      <point x="383.0" y="1086" type="line" smooth="yes"/>
      <point x="479.0" y="1086.0"/>
      <point x="571.0" y="1104.0"/>
      <point x="571.0" y="1172" type="qcurve" smooth="yes"/>
      <point x="571.0" y="1057" type="line" smooth="yes"/>
      <point x="571" y="1085"/>
      <point x="550" y="1093"/>
      <point x="551" y="1023" type="qcurve" smooth="yes"/>
      <point x="590.0" y="930"/>
      <point x="775.0" y="668.0"/>
      <point x="775" y="438.0" type="qcurve" smooth="yes"/>
      <point x="775" y="405.0" type="line" smooth="yes"/>
      <point x="775" y="219"/>
      <point x="552.0" y="-22.0"/>
      <point x="388" y="-22.0" type="qcurve" smooth="yes"/>
      <point x="374" y="-22.0" type="line" smooth="yes"/>
      <point x="219.0" y="-22.0"/>
      <point x="-12" y="174.0"/>
      <point x="-7" y="331.0" type="qcurve" smooth="yes"/>
      <point x="-7" y="496.0" type="line"/>
      <point x="523.0" y="494.0" type="line"/>
      <point x="523.0" y="318" type="line" smooth="yes"/>
      <point x="523.0" y="334.0"/>
      <point x="465.0" y="364"/>
      <point x="371.0" y="364" type="qcurve" smooth="yes"/>
      <point x="384.0" y="364" type="line" smooth="yes"/>
      <point x="304.0" y="364.0"/>
      <point x="193" y="347"/>
      <point x="193.0" y="337" type="qcurve" smooth="yes"/>
    </contour>
  </outline>
</glyph>
<glyph name="T" format="2">
  <advance width="708"/>
  <unicode hex="0054"/>
  <outline>
    <contour>
      <point x="48" y="0" type="line"/>
      <point x="48" y="1430" type="line"/>
      <point x="665" y="1430" type="line"/>
      <point x="665" y="0" type="line"/>
    </contour>
    <contour>
      <point x="714" y="1055" type="line"/>
      <point x="-6" y="1055" type="line"/>
      <point x="-6" y="1500" type="line"/>
      <point x="714" y="1500" type="line"/>
    </contour>
  </outline>
</glyph>
<glyph name="U" format="2">
  <advance width="950"/>
  <unicode hex="0055"/>
  <outline>
    <contour>
      <point x="43" y="1500.0" type="line"/>
      <point x="653.0" y="1500" type="line"/>
      <point x="653.0" y="195" type="line" smooth="yes"/>
      <point x="653.0" y="340.0"/>
      <point x="573.0" y="451"/>
      <point x="479.0" y="451" type="qcurve" smooth="yes"/>
      <point x="486.0" y="451" type="line" smooth="yes"/>
      <point x="392.0" y="451"/>
      <point x="313.0" y="363.0"/>
      <point x="313.0" y="204" type="qcurve" smooth="yes"/>
      <point x="312.0" y="1500" type="line"/>
      <point x="914" y="1500.0" type="line"/>
      <point x="906" y="370.0" type="line" smooth="yes"/>
      <point x="904.0" y="166.0"/>
      <point x="690.0" y="-23.0"/>
      <point x="494" y="-23.0" type="qcurve" smooth="yes"/>
      <point x="457" y="-23.0" type="line" smooth="yes"/>
      <point x="299.0" y="-23.0"/>
      <point x="43" y="172.0"/>
      <point x="43" y="379.0" type="qcurve" smooth="yes"/>
    </contour>
  </outline>
</glyph>
<glyph name="V" format="2">
  <advance width="821"/>
  <unicode hex="0056"/>
  <outline>
    <contour>
      <point x="136" y="0" type="line"/>
      <point x="-70" y="1500" type="line"/>
      <point x="529.0" y="1500" type="line"/>
      <point x="427.0" y="1066" type="line"/>
      <point x="336.0" y="1500" type="line"/>
      <point x="911" y="1500" type="line"/>
      <point x="656" y="0" type="line"/>
    </contour>
  </outline>
</glyph>
<glyph name="W" format="2">
  <advance width="1042"/>
  <unicode hex="0057"/>
  <outline>
    <contour>
      <point x="171" y="0" type="line"/>
      <point x="-44" y="1500" type="line"/>
      <point x="555" y="1500" type="line"/>
      <point x="478" y="1387" type="line"/>
      <point x="348" y="1500" type="line"/>
      <point x="768" y="1500" type="line"/>
      <point x="661" y="1390" type="line"/>
      <point x="550" y="1500" type="line"/>
      <point x="1086" y="1500" type="line"/>
      <point x="871" y="0" type="line"/>
      <point x="510.0" y="0.0" type="line"/>
      <point x="539.0" y="246" type="line"/>
      <point x="517.0" y="248" type="line"/>
      <point x="532.0" y="0.0" type="line"/>
    </contour>
  </outline>
</glyph>
<glyph name="X" format="2">
  <advance width="684"/>
  <unicode hex="0058"/>
  <outline>
    <contour>
      <point x="-78" y="0" type="line"/>
      <point x="100" y="963" type="line"/>
      <point x="168" y="959" type="line"/>
      <point x="137" y="1500" type="line"/>
      <point x="707" y="1500" type="line"/>
      <point x="594" y="640" type="line"/>
      <point x="522" y="639" type="line"/>
      <point x="492" y="0" type="line"/>
    </contour>
    <contour>
      <point x="110" y="0" type="line"/>
      <point x="138" y="514" type="line"/>
      <point x="118" y="580" type="line"/>
      <point x="-65" y="1500" type="line"/>
      <point x="596" y="1500" type="line"/>
      <point x="521" y="1064" type="line"/>
      <point x="550" y="998" type="line"/>
      <point x="762" y="0" type="line"/>
    </contour>
  </outline>
</glyph>
<glyph name="Y" format="2">
  <advance width="590"/>
  <unicode hex="0059"/>
  <outline>
    <contour>
      <point x="39" y="500" type="line"/>
      <point x="-190" y="1500" type="line"/>
      <point x="480" y="1500" type="line"/>
      <point x="297" y="1328" type="line"/>
      <point x="137" y="1500" type="line"/>
      <point x="780" y="1500" type="line"/>
      <point x="552" y="500" type="line"/>
    </contour>
    <contour>
      <point x="-14" y="0" type="line"/>
      <point x="-14" y="670" type="line"/>
      <point x="609" y="670" type="line"/>
      <point x="609" y="0" type="line"/>
    </contour>
  </outline>
</glyph>
<glyph name="Z" format="2">
  <advance width="661"/>
  <unicode hex="005A"/>
  <outline>
    <contour>
      <point x="654" y="0" type="line"/>
      <point x="14" y="0" type="line"/>
      <point x="9" y="445" type="line"/>
      <point x="-16" y="1055" type="line"/>
      <point x="4" y="1055" type="line"/>
      <point x="4" y="1500" type="line"/>
      <point x="624" y="1500" type="line"/>
      <point x="624" y="1065" type="line"/>
      <point x="642" y="445" type="line"/>
      <point x="654" y="445" type="line"/>
    </contour>
  </outline>
</glyph>
<glyph name="bracketleft" format="2">
  <advance width="506"/>
  <unicode hex="005B"/>
  <outline>
    <contour>
      <point x="-42" y="-280" type="line"/>
      <point x="-42" y="1500" type="line"/>
      <point x="509" y="1500" type="line"/>
      <point x="509" y="-280" type="line"/>
    </contour>
    <contour>
      <point x="676" y="-280" type="line"/>
      <point x="289" y="-280" type="line"/>
      <point x="289" y="125" type="line"/>
      <point x="676" y="125" type="line"/>
    </contour>
    <contour>
      <point x="676" y="1095" type="line"/>
      <point x="284" y="1095" type="line"/>
      <point x="284" y="1500" type="line"/>
      <point x="676" y="1500" type="line"/>
    </contour>
  </outline>
</glyph>
<glyph name="bracketright" format="2">
  <advance width="506"/>
  <unicode hex="005D"/>
  <outline>
    <contour>
      <point x="548" y="-280" type="line"/>
      <point x="-3" y="-280" type="line"/>
      <point x="-3" y="1500" type="line"/>
      <point x="548" y="1500" type="line"/>
    </contour>
    <contour>
      <point x="-170" y="-280" type="line"/>
      <point x="-170" y="125" type="line"/>
      <point x="217" y="125" type="line"/>
      <point x="217" y="-280" type="line"/>
    </contour>
    <contour>
      <point x="-170" y="1095" type="line"/>
      <point x="-170" y="1500" type="line"/>
      <point x="222" y="1500" type="line"/>
      <point x="222" y="1095" type="line"/>
    </contour>
  </outline>
</glyph>
<glyph name="asciicircum" format="2">
  <advance width="1072"/>
  <unicode hex="005E"/>
  <outline>
    <contour>
      <point x="818.0" y="1513.0" type="line"/>
      <point x="1084.0" y="833.0" type="line"/>
      <point x="529.0" y="833.0" type="line"/>
      <point x="535.0" y="1050.0" type="line"/>
      <point x="542.0" y="833.0" type="line"/>
      <point x="-12.0" y="833.0" type="line"/>
      <point x="258.0" y="1513.0" type="line"/>
    </contour>
  </outline>
</glyph>
<glyph name="a" format="2">
  <advance width="850"/>
  <unicode hex="0061"/>
  <outline>
    <contour>
      <point x="35" y="862.0" type="line"/>
      <point x="70" y="931.0"/>
      <point x="253" y="1061.0"/>
      <point x="414" y="1061.0" type="qcurve" smooth="yes"/>
      <point x="654" y="1061.0"/>
      <point x="812.0" y="914.0"/>
      <point x="817.0" y="785.0" type="qcurve" smooth="yes"/>
      <point x="820.0" y="1.0" type="line"/>
      <point x="285" y="1.0" type="line"/>
      <point x="275.0" y="759" type="line" smooth="yes"/>
      <point x="274.0" y="712"/>
      <point x="292.0" y="725"/>
      <point x="273.0" y="725" type="qcurve" smooth="yes"/>
      <point x="284.0" y="725"/>
      <point x="213.0" y="696"/>
      <point x="201.0" y="673" type="qcurve"/>
    </contour>
    <contour>
      <point x="442.0" y="271" type="line"/>
      <point x="428.0" y="166"/>
      <point x="288.0" y="-10"/>
      <point x="237.0" y="-10" type="qcurve" smooth="yes"/>
      <point x="133.0" y="-10"/>
      <point x="-30" y="138"/>
      <point x="-30" y="330.0" type="qcurve" smooth="yes"/>
      <point x="-30" y="510"/>
      <point x="123.0" y="678"/>
      <point x="232.0" y="678" type="qcurve" smooth="yes"/>
      <point x="325.0" y="678"/>
      <point x="397.0" y="619"/>
      <point x="441.0" y="549" type="qcurve"/>
      <point x="440.0" y="440" type="line"/>
      <point x="438.0" y="440"/>
      <point x="415.0" y="452"/>
      <point x="444.0" y="452" type="qcurve" smooth="yes"/>
      <point x="485.0" y="452"/>
      <point x="476" y="418"/>
      <point x="476.0" y="351" type="qcurve" smooth="yes"/>
      <point x="476.0" y="271"/>
      <point x="480" y="277"/>
      <point x="454.0" y="277" type="qcurve" smooth="yes"/>
      <point x="383" y="277"/>
      <point x="388.0" y="276"/>
      <point x="441.0" y="376" type="qcurve"/>
    </contour>
  </outline>
</glyph>
<glyph name="b" format="2">
  <advance width="990"/>
  <unicode hex="0062"/>
  <outline>
    <contour>
      <point x="61" y="2" type="line"/>
      <point x="61" y="1540" type="line"/>
      <point x="616" y="1540" type="line"/>
      <point x="606" y="2" type="line"/>
    </contour>
    <contour>
      <point x="541.0" y="957" type="line" smooth="yes"/>
      <point x="541.0" y="957.0"/>
      <point x="616.0" y="1062"/>
      <point x="720.0" y="1062" type="qcurve" smooth="yes"/>
      <point x="733" y="1062.0" type="line" smooth="yes"/>
      <point x="832.0" y="1062.0"/>
      <point x="933.0" y="854.0"/>
      <point x="933" y="736.0" type="qcurve" smooth="yes"/>
      <point x="933" y="365.0" type="line" smooth="yes"/>
      <point x="933.0" y="210.0"/>
      <point x="850.0" y="-12.0"/>
      <point x="731" y="-12.0" type="qcurve" smooth="yes"/>
      <point x="726.0" y="-12.0" type="line" smooth="yes"/>
      <point x="624.0" y="-12"/>
      <point x="541.0" y="79"/>
      <point x="541.0" y="29" type="qcurve" smooth="yes"/>
    </contour>
    <contour>
      <point x="635.0" y="779" type="qcurve" smooth="yes"/>
      <point x="635.0" y="260" type="line" smooth="yes"/>
      <point x="635.0" y="287.0"/>
      <point x="579.0" y="302.0"/>
      <point x="513.0" y="302.0" type="qcurve" smooth="yes"/>
      <point x="512.0" y="302.0" type="line" smooth="yes"/>
      <point x="444.0" y="302.0"/>
      <point x="388.0" y="267"/>
      <point x="388.0" y="260" type="qcurve" smooth="yes"/>
      <point x="388.0" y="804" type="line" smooth="yes"/>
      <point x="388.0" y="798"/>
      <point x="413.0" y="734.0"/>
      <point x="486.0" y="734.0" type="qcurve" smooth="yes"/>
      <point x="487.0" y="734.0" type="line" smooth="yes"/>
      <point x="556.0" y="734.0"/>
      <point x="635.0" y="733.0"/>
    </contour>
  </outline>
</glyph>
<glyph name="c" format="2">
  <advance width="783"/>
  <unicode hex="0063"/>
  <outline>
    <contour>
      <point x="790.0" y="417.0" type="line"/>
      <point x="789" y="313.0" type="line" smooth="yes"/>
      <point x="795" y="154"/>
      <point x="606" y="-15.0"/>
      <point x="432" y="-15.0" type="qcurve" smooth="yes"/>
      <point x="420" y="-15.0" type="line" smooth="yes"/>
      <point x="255" y="-15.0"/>
      <point x="34" y="160.0"/>
      <point x="34" y="354.0" type="qcurve" smooth="yes"/>
      <point x="34" y="731.0" type="line" smooth="yes"/>
      <point x="34" y="874.0"/>
      <point x="247" y="1062.0"/>
      <point x="409" y="1062.0" type="qcurve" smooth="yes"/>
      <point x="433" y="1062.0" type="line" smooth="yes"/>
      <point x="593.0" y="1062.0"/>
      <point x="783" y="902.0"/>
      <point x="788" y="753.0" type="qcurve" smooth="yes"/>
      <point x="790" y="596.0" type="line"/>
      <point x="294" y="597.0" type="line"/>
      <point x="294.0" y="738" type="line" smooth="yes"/>
      <point x="305" y="743"/>
      <point x="365.0" y="728"/>
      <point x="444.0" y="728" type="qcurve" smooth="yes"/>
      <point x="450.0" y="728" type="line" smooth="yes"/>
      <point x="529.0" y="728"/>
      <point x="623" y="791"/>
      <point x="623.0" y="824" type="qcurve" smooth="yes"/>
      <point x="623.0" y="240" type="line" smooth="yes"/>
      <point x="623.0" y="269"/>
      <point x="525.0" y="309"/>
      <point x="452.0" y="309" type="qcurve" smooth="yes"/>
      <point x="443.0" y="309" type="line" smooth="yes"/>
      <point x="369.0" y="309"/>
      <point x="305.0" y="294"/>
      <point x="290.0" y="312" type="qcurve" smooth="yes"/>
      <point x="288" y="419.0" type="line"/>
    </contour>
  </outline>
</glyph>
<glyph name="f" format="2">
  <advance width="433"/>
  <unicode hex="0066"/>
  <outline>
    <contour>
      <point x="489" y="646" type="line"/>
      <point x="-1" y="646" type="line"/>
      <point x="-1" y="1030" type="line"/>
      <point x="489" y="1030" type="line"/>
    </contour>
    <contour>
      <point x="447.0" y="1205.0" type="qcurve" smooth="yes"/>
      <point x="457" y="0" type="line"/>
      <point x="-93" y="0.0" type="line"/>
      <point x="-93.0" y="1239.0" type="line" smooth="yes"/>
      <point x="-93.0" y="1392.0"/>
      <point x="131" y="1605.0"/>
      <point x="309" y="1605.0" type="qcurve" smooth="yes"/>
      <point x="416.0" y="1605.0"/>
      <point x="499.0" y="1582.0"/>
      <point x="532" y="1563" type="qcurve"/>
      <point x="487" y="1271" type="line"/>
      <point x="476.0" y="1270.0"/>
      <point x="486" y="1265"/>
      <point x="473" y="1265" type="qcurve" smooth="yes"/>
      <point x="450" y="1265"/>
      <point x="446.0" y="1248.0"/>
    </contour>
  </outline>
</glyph>
<glyph name="g" format="2">
  <advance width="966"/>
  <unicode hex="0067"/>
  <outline>
    <contour>
      <point x="425" y="1028.0" type="qcurve" smooth="yes"/>
      <point x="425" y="-4.0" type="line" smooth="yes"/>
      <point x="425.0" y="20.0"/>
      <point x="361" y="-30.0"/>
      <point x="306" y="-30.0" type="qcurve" smooth="yes"/>
      <point x="257.0" y="-30.0" type="line" smooth="yes"/>
      <point x="147" y="-30"/>
      <point x="44" y="162.0"/>
      <point x="44.0" y="402.0" type="qcurve" smooth="yes"/>
      <point x="44.0" y="742.0" type="line" smooth="yes"/>
      <point x="44" y="897.0"/>
      <point x="166.0" y="1063.0"/>
      <point x="276.0" y="1063.0" type="qcurve" smooth="yes"/>
      <point x="320" y="1063.0" type="line" smooth="yes"/>
      <point x="379" y="1063.0"/>
      <point x="425" y="1032.0"/>
    </contour>
    <contour>
      <point x="345" y="762.0" type="line" smooth="yes"/>
      <point x="345" y="758.0"/>
      <point x="416" y="734.0"/>
      <point x="476" y="734.0" type="qcurve" smooth="yes"/>
      <point x="478" y="734.0" type="line" smooth="yes"/>
      <point x="552" y="734.0"/>
      <point x="602" y="780.0"/>
      <point x="602" y="789.0" type="qcurve" smooth="yes"/>
      <point x="602" y="271.0" type="line" smooth="yes"/>
      <point x="602.0" y="238.0"/>
      <point x="551" y="280.0"/>
      <point x="478" y="280.0" type="qcurve" smooth="yes"/>
      <point x="476" y="280.0" type="line" smooth="yes"/>
      <point x="406" y="280.0"/>
      <point x="345.0" y="266.0"/>
      <point x="345" y="290.0" type="qcurve" smooth="yes"/>
    </contour>
    <contour>
      <point x="-148" y="-75.0" type="line"/>
      <point x="-99" y="-90.0"/>
      <point x="18" y="-125"/>
      <point x="195" y="-125.0" type="qcurve" smooth="yes"/>
      <point x="316.0" y="-125.0"/>
      <point x="379.0" y="10"/>
      <point x="379" y="147.0" type="qcurve" smooth="yes"/>
      <point x="379" y="1040.0" type="line"/>
      <point x="911" y="1040.0" type="line"/>
      <point x="911.0" y="179" type="line" smooth="yes"/>
      <point x="911.0" y="-205.0"/>
      <point x="521" y="-490.0"/>
      <point x="294" y="-490.0" type="qcurve" smooth="yes"/>
      <point x="86" y="-490.0"/>
      <point x="-111" y="-455.0"/>
      <point x="-175" y="-440.0" type="qcurve"/>
    </contour>
  </outline>
</glyph>
<glyph name="h" format="2">
  <advance width="908"/>
  <unicode hex="0068"/>
  <outline>
    <contour>
      <point x="61" y="0" type="line"/>
      <point x="61" y="1540" type="line"/>
      <point x="605" y="1540" type="line"/>
      <point x="615" y="0" type="line"/>
    </contour>
    <contour>
      <point x="363" y="470" type="line"/>
      <point x="320" y="666"/>
      <point x="460.0" y="1060.0"/>
      <point x="650" y="1060.0" type="qcurve" smooth="yes"/>
      <point x="779" y="1060.0"/>
      <point x="878.0" y="909.0"/>
      <point x="878" y="789" type="qcurve" smooth="yes"/>
      <point x="878" y="0" type="line"/>
      <point x="323" y="0" type="line"/>
      <point x="323.0" y="743" type="line" smooth="yes"/>
      <point x="323.0" y="699.0"/>
      <point x="347" y="645.0"/>
      <point x="411" y="645.0" type="qcurve" smooth="yes"/>
      <point x="438" y="645"/>
      <point x="426" y="511"/>
      <point x="403" y="379" type="qcurve"/>
    </contour>
  </outline>
</glyph>
<glyph name="i" format="2">
  <advance width="537"/>
  <unicode hex="0069"/>
  <outline>
    <contour>
      <point x="-39" y="0" type="line"/>
      <point x="-39" y="1040" type="line"/>
      <point x="509" y="1040" type="line"/>
      <point x="509" y="0" type="line"/>
    </contour>
    <contour>
      <point x="230.0" y="989" type="line" smooth="yes"/>
      <point x="370.0" y="989"/>
      <point x="515.0" y="1141"/>
      <point x="515.0" y="1261" type="qcurve" smooth="yes"/>
      <point x="515.0" y="1277" type="line" smooth="yes"/>
      <point x="515.0" y="1396"/>
      <point x="372.0" y="1551"/>
      <point x="230.0" y="1551" type="qcurve" smooth="yes"/>
      <point x="224.0" y="1551" type="line" smooth="yes"/>
      <point x="92.0" y="1551"/>
      <point x="-53.0" y="1396"/>
      <point x="-53.0" y="1277" type="qcurve" smooth="yes"/>
      <point x="-53.0" y="1261" type="line" smooth="yes"/>
      <point x="-53.0" y="1138"/>
      <point x="88.0" y="989"/>
      <point x="224.0" y="989" type="qcurve" smooth="yes"/>
    </contour>
    <contour>
      <point x="419" y="640" type="line"/>
      <point x="167" y="620" type="line"/>
      <point x="167" y="1020" type="line"/>
      <point x="419" y="1040" type="line"/>
    </contour>
  </outline>
</glyph>
<glyph name="j" format="2">
  <advance width="536"/>
  <unicode hex="006A"/>
  <outline>
    <contour>
      <point x="496" y="-25" type="line" smooth="yes"/>
      <point x="496" y="-375"/>
      <point x="167" y="-498"/>
      <point x="-11" y="-498" type="qcurve" smooth="yes"/>
      <point x="-107" y="-498"/>
      <point x="-172" y="-489"/>
      <point x="-193" y="-481" type="qcurve"/>
      <point x="-173" y="-37" type="line"/>
      <point x="-167" y="-41"/>
      <point x="-147" y="-53"/>
      <point x="-87" y="-53" type="qcurve" smooth="yes"/>
      <point x="-92" y="-53"/>
      <point x="-48" y="-30"/>
      <point x="-48" y="38" type="qcurve" smooth="yes"/>
      <point x="-48" y="1042" type="line"/>
      <point x="496" y="1042" type="line"/>
    </contour>
    <contour>
      <point x="231" y="989" type="line" smooth="yes"/>
      <point x="371" y="989"/>
      <point x="516" y="1141"/>
      <point x="516" y="1261" type="qcurve" smooth="yes"/>
      <point x="516" y="1277" type="line" smooth="yes"/>
      <point x="516" y="1396"/>
      <point x="373" y="1551"/>
      <point x="231" y="1551" type="qcurve" smooth="yes"/>
      <point x="225" y="1551" type="line" smooth="yes"/>
      <point x="93" y="1551"/>
      <point x="-52" y="1396"/>
      <point x="-52" y="1277" type="qcurve" smooth="yes"/>
      <point x="-52" y="1261" type="line" smooth="yes"/>
      <point x="-52" y="1138"/>
      <point x="89" y="989"/>
      <point x="225" y="989" type="qcurve" smooth="yes"/>
    </contour>
    <contour>
      <point x="322" y="640" type="line"/>
      <point x="190" y="620" type="line"/>
      <point x="190" y="1022" type="line"/>
      <point x="322" y="1042" type="line"/>
    </contour>
  </outline>
</glyph>
<glyph name="k" format="2">
  <advance width="1131"/>
  <unicode hex="006B"/>
  <outline>
    <contour>
      <point x="62" y="0" type="line"/>
      <point x="62" y="1540" type="line"/>
      <point x="614" y="1540" type="line"/>
      <point x="614" y="0" type="line"/>
    </contour>
    <contour>
      <point x="754" y="498" type="line"/>
      <point x="614" y="344" type="line"/>
      <point x="614" y="780" type="line"/>
      <point x="561" y="835" type="line"/>
      <point x="598" y="1040" type="line"/>
      <point x="1164" y="1040" type="line"/>
      <point x="939" y="583" type="line"/>
    </contour>
    <contour>
      <point x="868" y="839" type="line"/>
      <point x="1218" y="0" type="line"/>
      <point x="628" y="0" type="line"/>
      <point x="443" y="557" type="line"/>
    </contour>
  </outline>
</glyph>
<glyph name="l" format="2">
  <advance width="541"/>
  <unicode hex="006C"/>
  <outline>
    <contour>
      <point x="56" y="239" type="qcurve" smooth="yes"/>
      <point x="66" y="1539" type="line"/>
      <point x="610" y="1539" type="line"/>
      <point x="610" y="1" type="line"/>
      <point x="311" y="1"/>
      <point x="55.0" y="85.0"/>
    </contour>
    <contour>
      <point x="340" y="73" type="line"/>
      <point x="350" y="30" type="line"/>
      <point x="102" y="444" type="line"/>
      <point x="340" y="509" type="line"/>
    </contour>
  </outline>
</glyph>
<glyph name="m" format="2">
  <advance width="1282"/>
  <unicode hex="006D"/>
  <outline>
    <contour>
      <point x="61" y="0" type="line"/>
      <point x="61" y="1040" type="line"/>
      <point x="605" y="1040" type="line"/>
      <point x="615" y="0" type="line"/>
    </contour>
    <contour>
      <point x="389" y="450" type="line"/>
      <point x="346" y="646"/>
      <point x="507" y="1060"/>
      <point x="732" y="1060.0" type="qcurve" smooth="yes"/>
      <point x="846" y="1060.0"/>
      <point x="939" y="909"/>
      <point x="939" y="789" type="qcurve" smooth="yes"/>
      <point x="939" y="0" type="line"/>
      <point x="385" y="0" type="line"/>
      <point x="385.0" y="763" type="line" smooth="yes"/>
      <point x="385.0" y="719.0"/>
      <point x="414" y="665"/>
      <point x="497" y="665" type="qcurve" smooth="yes"/>
      <point x="485" y="665"/>
      <point x="452" y="517"/>
      <point x="429" y="385" type="qcurve"/>
    </contour>
    <contour>
      <point x="691" y="534" type="line"/>
      <point x="648" y="703"/>
      <point x="843" y="1060.0"/>
      <point x="1041" y="1060.0" type="qcurve" smooth="yes"/>
      <point x="1159" y="1060"/>
      <point x="1253" y="909"/>
      <point x="1253" y="789" type="qcurve" smooth="yes"/>
      <point x="1253" y="0" type="line"/>
      <point x="698" y="0" type="line"/>
      <point x="698.0" y="763" type="line" smooth="yes"/>
      <point x="698.0" y="719.0"/>
      <point x="727" y="665"/>
      <point x="810" y="665" type="qcurve" smooth="yes"/>
      <point x="798" y="665"/>
      <point x="765" y="517"/>
      <point x="742" y="385" type="qcurve"/>
    </contour>
  </outline>
</glyph>
<glyph name="o" format="2">
  <advance width="896"/>
  <unicode hex="006F"/>
  <outline>
    <contour>
      <point x="443" y="-14.0" type="line" smooth="yes"/>
      <point x="247" y="-14.0"/>
      <point x="34" y="173"/>
      <point x="34" y="354.0" type="qcurve" smooth="yes"/>
      <point x="34" y="729.0" type="line" smooth="yes"/>
      <point x="34" y="879"/>
      <point x="254" y="1061.0"/>
      <point x="441" y="1061.0" type="qcurve" smooth="yes"/>
      <point x="446" y="1061.0" type="line" smooth="yes"/>
      <point x="635" y="1061.0"/>
      <point x="863" y="880"/>
      <point x="863" y="729.0" type="qcurve" smooth="yes"/>
      <point x="863" y="354.0" type="line" smooth="yes"/>
      <point x="863" y="173"/>
      <point x="646" y="-14.0"/>
      <point x="448" y="-14.0" type="qcurve" smooth="yes"/>
    </contour>
    <contour>
      <point x="453.0" y="315" type="line" smooth="yes"/>
      <point x="389.0" y="315.0"/>
      <point x="304" y="262"/>
      <point x="304.0" y="267" type="qcurve" smooth="yes"/>
      <point x="304.0" y="792" type="line" smooth="yes"/>
      <point x="304" y="792"/>
      <point x="387.0" y="731.0"/>
      <point x="453.0" y="731" type="qcurve" smooth="yes"/>
      <point x="453.0" y="731" type="line" smooth="yes"/>
      <point x="517.0" y="731.0"/>
      <point x="600" y="792"/>
      <point x="600.0" y="792" type="qcurve" smooth="yes"/>
      <point x="600.0" y="267" type="line" smooth="yes"/>
      <point x="600" y="262"/>
      <point x="517.0" y="315.0"/>
      <point x="453.0" y="315" type="qcurve" smooth="yes"/>
    </contour>
  </outline>
</glyph>
<glyph name="p" format="2">
  <advance width="991"/>
  <unicode hex="0070"/>
  <outline>
    <contour>
      <point x="61" y="-470" type="line"/>
      <point x="61" y="1040" type="line"/>
      <point x="595" y="1040" type="line"/>
      <point x="615" y="-470" type="line"/>
    </contour>
    <contour>
      <point x="492.0" y="770.0" type="line" smooth="yes"/>
      <point x="492.0" y="863.0"/>
      <point x="618.0" y="1071.0"/>
      <point x="723.0" y="1071.0" type="qcurve" smooth="yes"/>
      <point x="736" y="1071.0" type="line" smooth="yes"/>
      <point x="845.0" y="1071.0"/>
      <point x="922.0" y="887.0"/>
      <point x="922" y="744.0" type="qcurve" smooth="yes"/>
      <point x="922" y="365.0" type="line" smooth="yes"/>
      <point x="922.0" y="187.0"/>
      <point x="833.0" y="-12.0"/>
      <point x="710" y="-12.0" type="qcurve" smooth="yes"/>
      <point x="697.0" y="-12.0" type="line" smooth="yes"/>
      <point x="584.0" y="-12.0"/>
      <point x="492.0" y="134.0"/>
      <point x="492.0" y="136.0" type="qcurve" smooth="yes"/>
    </contour>
    <contour>
      <point x="635.0" y="802.0" type="qcurve" smooth="yes"/>
      <point x="635.0" y="321.0" type="line" smooth="yes"/>
      <point x="635.0" y="307.0"/>
      <point x="572.0" y="302.0"/>
      <point x="508.0" y="302.0" type="qcurve" smooth="yes"/>
      <point x="508.0" y="302.0" type="line" smooth="yes"/>
      <point x="434.0" y="302.0"/>
      <point x="355.0" y="261.0"/>
      <point x="355.0" y="252.0" type="qcurve" smooth="yes"/>
      <point x="355.0" y="802.0" type="line" smooth="yes"/>
      <point x="355.0" y="801.0"/>
      <point x="423.0" y="734.0"/>
      <point x="499.0" y="734.0" type="qcurve" smooth="yes"/>
      <point x="500.0" y="734.0" type="line" smooth="yes"/>
      <point x="572.0" y="734.0"/>
      <point x="635.0" y="724.0"/>
    </contour>
  </outline>
</glyph>
<glyph name="q" format="2">
  <advance width="989"/>
  <unicode hex="0071"/>
  <outline>
    <contour>
      <point x="928" y="-480" type="line"/>
      <point x="373" y="-480" type="line"/>
      <point x="383" y="1060" type="line"/>
      <point x="928" y="1060" type="line"/>
    </contour>
    <contour>
      <point x="435.0" y="965.0" type="qcurve" smooth="yes"/>
      <point x="435.0" y="17.0" type="line" smooth="yes"/>
      <point x="435.0" y="45.0"/>
      <point x="323.0" y="-15.0"/>
      <point x="250.0" y="-15.0" type="qcurve" smooth="yes"/>
      <point x="247.0" y="-15.0" type="line" smooth="yes"/>
      <point x="137" y="-15"/>
      <point x="34.0" y="197.0"/>
      <point x="34.0" y="367.0" type="qcurve" smooth="yes"/>
      <point x="34.0" y="732.0" type="line" smooth="yes"/>
      <point x="34.0" y="867.0"/>
      <point x="148.0" y="1063.0"/>
      <point x="258.0" y="1063.0" type="qcurve" smooth="yes"/>
      <point x="261.0" y="1063.0" type="line" smooth="yes"/>
      <point x="366.0" y="1063.0"/>
      <point x="435.0" y="996.0"/>
    </contour>
    <contour>
      <point x="346" y="762.0" type="line" smooth="yes"/>
      <point x="346.0" y="758.0"/>
      <point x="412.0" y="734.0"/>
      <point x="468" y="734.0" type="qcurve" smooth="yes"/>
      <point x="469" y="734.0" type="line" smooth="yes"/>
      <point x="539" y="734.0"/>
      <point x="584.0" y="780.0"/>
      <point x="584.0" y="789.0" type="qcurve" smooth="yes"/>
      <point x="584.0" y="246.0" type="line" smooth="yes"/>
      <point x="584.0" y="253.0"/>
      <point x="538" y="295.0"/>
      <point x="469" y="295.0" type="qcurve" smooth="yes"/>
      <point x="468" y="295.0" type="line" smooth="yes"/>
      <point x="402" y="295.0"/>
      <point x="346" y="271.0"/>
      <point x="346" y="275.0" type="qcurve" smooth="yes"/>
    </contour>
  </outline>
</glyph>
<glyph name="r" format="2">
  <advance width="630"/>
  <unicode hex="0072"/>
  <outline>
    <contour>
      <point x="61" y="0" type="line"/>
      <point x="61" y="1040" type="line"/>
      <point x="618" y="1040" type="line"/>
      <point x="618" y="0" type="line"/>
    </contour>
    <contour>
      <point x="404.0" y="705" type="line"/>
      <point x="449.0" y="844"/>
      <point x="601" y="1064.0"/>
      <point x="620.0" y="1064.0" type="qcurve" smooth="yes"/>
      <point x="657" y="1064"/>
      <point x="684" y="1061.0"/>
      <point x="690" y="1058.0" type="qcurve"/>
      <point x="690" y="577.0" type="line"/>
      <point x="679" y="581.0"/>
      <point x="645" y="586.0"/>
      <point x="607" y="586.0" type="qcurve" smooth="yes"/>
      <point x="574" y="586"/>
      <point x="448" y="526.0"/>
      <point x="413" y="427.0" type="qcurve"/>
    </contour>
  </outline>
</glyph>
<glyph name="s" format="2">
  <advance width="909"/>
  <unicode hex="0073"/>
  <outline>
    <contour>
      <point x="358.0" y="316.0" type="line" smooth="yes"/>
      <point x="358.0" y="282.0"/>
      <point x="375.0" y="305"/>
      <point x="306.0" y="355" type="qcurve" smooth="yes"/>
      <point x="181" y="425"/>
      <point x="22.0" y="602.0"/>
      <point x="22.0" y="717.0" type="qcurve" smooth="yes"/>
      <point x="22.0" y="727.0" type="line" smooth="yes"/>
      <point x="22.0" y="880"/>
      <point x="275.0" y="1061"/>
      <point x="467.0" y="1061.0" type="qcurve" smooth="yes"/>
      <point x="508.0" y="1061.0" type="line" smooth="yes"/>
      <point x="694.0" y="1061.0"/>
      <point x="883" y="916"/>
      <point x="889.0" y="793.0" type="qcurve" smooth="yes"/>
      <point x="891.0" y="740.0" type="line"/>
      <point x="402.0" y="740.0" type="line"/>
      <point x="402.0" y="755.0" type="line" smooth="yes"/>
      <point x="402.0" y="756"/>
      <point x="454.0" y="747.0"/>
      <point x="513.0" y="747.0" type="qcurve" smooth="yes"/>
      <point x="476.0" y="747.0" type="line" smooth="yes"/>
      <point x="528" y="747"/>
      <point x="556" y="747"/>
      <point x="556.0" y="734.0" type="qcurve" smooth="yes"/>
      <point x="556.0" y="733.0" type="line" smooth="yes"/>
      <point x="556.0" y="737.0"/>
      <point x="580.0" y="738"/>
      <point x="590.0" y="712" type="qcurve" smooth="yes"/>
      <point x="698.0" y="663"/>
      <point x="880.0" y="470.0"/>
      <point x="880.0" y="362.0" type="qcurve" smooth="yes"/>
      <point x="880.0" y="354.0" type="line" smooth="yes"/>
      <point x="880.0" y="203.0"/>
      <point x="681.0" y="-15.0"/>
      <point x="473.0" y="-15.0" type="qcurve" smooth="yes"/>
      <point x="463.0" y="-15.0" type="line" smooth="yes"/>
      <point x="269.0" y="-15"/>
      <point x="55.0" y="169"/>
      <point x="52.0" y="292.0" type="qcurve" smooth="yes"/>
      <point x="49.0" y="363.0" type="line"/>
      <point x="622.0" y="365.0" type="line"/>
      <point x="622.0" y="350.0" type="line" smooth="yes"/>
      <point x="622" y="295.0"/>
      <point x="543" y="286.0"/>
      <point x="488.0" y="286.0" type="qcurve" smooth="yes"/>
      <point x="494.0" y="286.0" type="line" smooth="yes"/>
      <point x="449.0" y="286.0"/>
      <point x="358" y="296.0"/>
      <point x="358.0" y="311.0" type="qcurve" smooth="yes"/>
    </contour>
  </outline>
</glyph>
<glyph name="t" format="2">
  <advance width="509"/>
  <unicode hex="0074"/>
  <outline>
    <contour>
      <point x="524" y="646" type="line"/>
      <point x="-9" y="646" type="line"/>
      <point x="-9" y="1037" type="line"/>
      <point x="524" y="1037" type="line"/>
    </contour>
    <contour>
      <point x="569.0" y="344" type="line" smooth="yes"/>
      <point x="569.0" y="367.0"/>
      <point x="583.0" y="359.0"/>
      <point x="540.0" y="359" type="qcurve" smooth="yes"/>
      <point x="537" y="359"/>
      <point x="548.0" y="371"/>
      <point x="496.0" y="349" type="qcurve"/>
      <point x="564.0" y="44" type="line"/>
      <point x="532.0" y="25"/>
      <point x="445.0" y="-14"/>
      <point x="347" y="-14" type="qcurve"/>
      <point x="216.0" y="-14"/>
      <point x="30.0" y="189.0"/>
      <point x="31.0" y="292" type="qcurve" smooth="yes"/>
      <point x="31" y="1259" type="line"/>
      <point x="569" y="1259" type="line"/>
    </contour>
  </outline>
</glyph>
<glyph name="v" format="2">
  <advance width="798"/>
  <unicode hex="0076"/>
  <outline>
    <contour>
      <point x="145" y="1" type="line"/>
      <point x="-80" y="1041" type="line"/>
      <point x="445" y="1041" type="line"/>
      <point x="415" y="704" type="line"/>
      <point x="365" y="1041" type="line"/>
      <point x="878" y="1041" type="line"/>
      <point x="662" y="1" type="line"/>
    </contour>
  </outline>
</glyph>
<glyph name="w" format="2">
  <advance width="1082"/>
  <unicode hex="0077"/>
  <outline>
    <contour>
      <point x="148" y="1" type="line"/>
      <point x="-50" y="1041" type="line"/>
      <point x="415.0" y="1041" type="line"/>
      <point x="411.0" y="818" type="line"/>
      <point x="336.0" y="1041" type="line"/>
      <point x="788" y="1041.0" type="line"/>
      <point x="759" y="818.0" type="line"/>
      <point x="707" y="1041.0" type="line"/>
      <point x="1132" y="1041" type="line"/>
      <point x="970" y="1" type="line"/>
      <point x="530" y="1.0" type="line"/>
      <point x="556" y="341" type="line"/>
      <point x="589" y="1.0" type="line"/>
    </contour>
  </outline>
</glyph>
<glyph name="x" format="2">
  <advance width="654"/>
  <unicode hex="0078"/>
  <outline>
    <contour>
      <point x="-50" y="1" type="line"/>
      <point x="260" y="1041" type="line"/>
      <point x="715" y="1041" type="line"/>
      <point x="404" y="1" type="line"/>
    </contour>
    <contour>
      <point x="227" y="1" type="line"/>
      <point x="-88" y="1041" type="line"/>
      <point x="412" y="1041" type="line"/>
      <point x="735" y="1" type="line"/>
    </contour>
  </outline>
</glyph>
<glyph name="y" format="2">
  <advance width="755"/>
  <unicode hex="0079"/>
  <outline>
    <contour>
      <point x="152" y="22" type="qcurve"/>
      <point x="-89" y="1040" type="line"/>
      <point x="459.0" y="1040" type="line"/>
      <point x="411.0" y="696" type="line"/>
      <point x="358.0" y="1040" type="line"/>
      <point x="855" y="1040" type="line"/>
      <point x="679" y="33" type="line" smooth="yes"/>
      <point x="581" y="-341"/>
      <point x="277" y="-487"/>
      <point x="108" y="-487" type="qcurve" smooth="yes"/>
      <point x="5" y="-487"/>
      <point x="-67" y="-478"/>
      <point x="-113" y="-463" type="qcurve"/>
      <point x="-97" y="-46" type="line"/>
      <point x="-68.0" y="-54.0"/>
      <point x="37.0" y="-72.0"/>
      <point x="99" y="-72" type="qcurve" smooth="yes"/>
      <point x="75" y="-72"/>
      <point x="183.0" y="-61"/>
    </contour>
  </outline>
</glyph>
<glyph name="z" format="2">
  <advance width="694"/>
  <unicode hex="007A"/>
  <outline>
    <contour>
      <point x="718" y="1" type="line"/>
      <point x="7" y="1" type="line"/>
      <point x="2" y="327" type="line"/>
      <point x="83" y="658" type="line"/>
      <point x="8" y="658" type="line"/>
      <point x="8" y="1041" type="line"/>
      <point x="697" y="1041" type="line"/>
      <point x="697" y="736" type="line"/>
      <point x="592" y="379" type="line"/>
      <point x="718" y="379" type="line"/>
    </contour>
  </outline>
</glyph>
<glyph name="braceleft" format="2">
  <advance width="506"/>
  <unicode hex="007B"/>
  <outline>
    <contour>
      <point x="-30.0" y="408" type="line"/>
      <point x="1.0" y="410"/>
      <point x="19" y="391.0"/>
      <point x="19" y="360.0" type="qcurve" smooth="yes"/>
      <point x="19" y="334.0"/>
      <point x="-13" y="275.0"/>
      <point x="-34" y="239.0" type="qcurve" smooth="yes"/>
      <point x="-57" y="202.0"/>
      <point x="-113.0" y="96.0"/>
      <point x="-113.0" y="-38.0" type="qcurve" smooth="yes"/>
      <point x="-113.0" y="-137.0"/>
      <point x="72.0" y="-336"/>
      <point x="272.0" y="-439" type="qcurve"/>
      <point x="577" y="-135" type="line"/>
      <point x="509" y="-68"/>
      <point x="418" y="-5.0"/>
      <point x="418" y="22.0" type="qcurve" smooth="yes"/>
      <point x="418" y="89.0"/>
      <point x="469" y="193.0"/>
      <point x="489" y="235.0" type="qcurve" smooth="yes"/>
      <point x="512" y="284.0"/>
      <point x="549" y="376.0"/>
      <point x="549" y="442.0" type="qcurve" smooth="yes"/>
      <point x="549" y="486.0"/>
      <point x="434" y="585"/>
      <point x="346" y="611" type="qcurve"/>
      <point x="434" y="637"/>
      <point x="549" y="736.0"/>
      <point x="549" y="770.0" type="qcurve" smooth="yes"/>
      <point x="549" y="830.0"/>
      <point x="515" y="910"/>
      <point x="489" y="950.0" type="qcurve" smooth="yes"/>
      <point x="465" y="986.0"/>
      <point x="398" y="1087"/>
      <point x="398" y="1154.0" type="qcurve" smooth="yes"/>
      <point x="398" y="1187.0"/>
      <point x="488" y="1265.0"/>
      <point x="593" y="1285.0" type="qcurve"/>
      <point x="306" y="1552" type="line"/>
      <point x="150" y="1535"/>
      <point x="-116" y="1349.0"/>
      <point x="-116" y="1279.0" type="qcurve" smooth="yes"/>
      <point x="-116" y="1169.0"/>
      <point x="-60" y="1049.0"/>
      <point x="-37" y="1005.0" type="qcurve" smooth="yes"/>
      <point x="-15" y="963.0"/>
      <point x="17" y="894.0"/>
      <point x="17.0" y="864.0" type="qcurve" smooth="yes"/>
      <point x="17" y="827.0"/>
      <point x="-2" y="817"/>
      <point x="-33" y="815" type="qcurve"/>
    </contour>
  </outline>
</glyph>
<glyph name="bar" format="2">
  <advance width="530"/>
  <unicode hex="007C"/>
  <outline>
    <contour>
      <point x="10" y="-500" type="line"/>
      <point x="10" y="1500" type="line"/>
      <point x="520" y="1500" type="line"/>
      <point x="520" y="-500" type="line"/>
    </contour>
  </outline>
</glyph>
<glyph name="braceright" format="2">
  <advance width="506"/>
  <unicode hex="007D"/>
  <outline>
    <contour>
      <point x="535.0" y="408.0" type="qcurve"/>
      <point x="538" y="815" type="line"/>
      <point x="507" y="817"/>
      <point x="488.0" y="827.0"/>
      <point x="488.0" y="864.0" type="qcurve" smooth="yes"/>
      <point x="488.0" y="894.0"/>
      <point x="520.0" y="963.0"/>
      <point x="542.0" y="1005.0" type="qcurve" smooth="yes"/>
      <point x="565.0" y="1049.0"/>
      <point x="621.0" y="1169.0"/>
      <point x="621.0" y="1279.0" type="qcurve" smooth="yes"/>
      <point x="621.0" y="1349.0"/>
      <point x="355" y="1535"/>
      <point x="199" y="1552" type="qcurve"/>
      <point x="-88.0" y="1275.0" type="line"/>
      <point x="17.0" y="1255.0"/>
      <point x="107.0" y="1177.0"/>
      <point x="107.0" y="1144.0" type="qcurve" smooth="yes"/>
      <point x="107" y="1077"/>
      <point x="40.0" y="976.0"/>
      <point x="16.0" y="940.0" type="qcurve" smooth="yes"/>
      <point x="-10" y="900"/>
      <point x="-44.0" y="820.0"/>
      <point x="-44.0" y="760.0" type="qcurve" smooth="yes"/>
      <point x="-44.0" y="726.0"/>
      <point x="71" y="627"/>
      <point x="159" y="601" type="qcurve"/>
      <point x="71" y="575"/>
      <point x="-44.0" y="476.0"/>
      <point x="-44.0" y="432.0" type="qcurve" smooth="yes"/>
      <point x="-44.0" y="366.0"/>
      <point x="-7.0" y="274.0"/>
      <point x="16.0" y="225.0" type="qcurve" smooth="yes"/>
      <point x="36.0" y="183.0"/>
      <point x="87.0" y="79.0"/>
      <point x="87.0" y="12.0" type="qcurve" smooth="yes"/>
      <point x="87.0" y="-15.0"/>
      <point x="-4" y="-78"/>
      <point x="-72" y="-145" type="qcurve"/>
      <point x="233.0" y="-439.0" type="line"/>
      <point x="433.0" y="-336.0"/>
      <point x="618.0" y="-137.0"/>
      <point x="618.0" y="-38.0" type="qcurve" smooth="yes"/>
      <point x="618.0" y="96.0"/>
      <point x="562.0" y="202.0"/>
      <point x="539.0" y="239.0" type="qcurve" smooth="yes"/>
      <point x="518.0" y="275.0"/>
      <point x="486.0" y="334.0"/>
      <point x="486.0" y="360.0" type="qcurve" smooth="yes"/>
      <point x="486.0" y="391.0"/>
      <point x="504.0" y="410.0"/>
    </contour>
  </outline>
</glyph>
<glyph name="asciitilde" format="2">
  <advance width="1254"/>
  <unicode hex="007E"/>
  <outline>
    <contour>
      <point x="659" y="1004.0" type="qcurve" smooth="yes"/>
      <point x="609" y="1052.0"/>
      <point x="516" y="1105.0"/>
      <point x="432" y="1105.0" type="qcurve" smooth="yes"/>
      <point x="339.0" y="1105.0"/>
      <point x="149" y="866.0"/>
      <point x="117" y="691.0" type="qcurve"/>
      <point x="353" y="486.0" type="line"/>
      <point x="368" y="556.0"/>
      <point x="429" y="620"/>
      <point x="477" y="620.0" type="qcurve"/>
      <point x="525" y="620"/>
      <point x="580" y="584"/>
      <point x="612" y="554.0" type="qcurve" smooth="yes"/>
      <point x="658" y="510"/>
      <point x="758" y="446.0"/>
      <point x="851" y="446.0" type="qcurve" smooth="yes"/>
      <point x="963" y="446.0"/>
      <point x="1154" y="673.0"/>
      <point x="1181" y="833.0" type="qcurve"/>
      <point x="943" y="1062.0" type="line"/>
      <point x="922" y="999.0"/>
      <point x="849" y="931.0"/>
      <point x="802" y="931.0" type="qcurve" smooth="yes"/>
      <point x="754" y="931"/>
      <point x="698" y="968"/>
    </contour>
  </outline>
</glyph>
